<svg width="192" height="44" viewBox="0 0 192 44" fill="none" xmlns="http://www.w3.org/2000/svg">
<path d="M62.888 13.68V18H60.216V6.4C61.3893 6.24 62.6693 6.16 64.056 6.16C65.656 6.16 66.8453 6.464 67.624 7.072C68.4133 7.66933 68.808 8.52267 68.808 9.632C68.808 10.3467 68.6 10.992 68.184 11.568C67.768 12.1333 67.2187 12.5387 66.536 12.784V12.816C67.0907 13.1253 67.544 13.76 67.896 14.72L69.128 18H66.328L65.224 14.832C65.0747 14.384 64.8933 14.08 64.68 13.92C64.4667 13.76 64.136 13.68 63.688 13.68H62.888ZM62.888 11.68H63.784C64.5307 11.68 65.1013 11.5253 65.496 11.216C65.8907 10.896 66.088 10.4533 66.088 9.888C66.088 8.77867 65.3573 8.224 63.896 8.224C63.512 8.224 63.176 8.256 62.888 8.32V11.68ZM79.2366 6.32V8.576H75.9886V18H73.2046V8.576H69.9566V6.32H79.2366ZM81.5029 18V6.32H84.4949V18H81.5029ZM94.4811 9.04C93.4678 8.53867 92.4011 8.288 91.2811 8.288C90.7265 8.288 90.3051 8.39467 90.0171 8.608C89.7291 8.82133 89.5851 9.10933 89.5851 9.472C89.5851 10.0693 90.0331 10.496 90.9291 10.752C92.5185 11.1893 93.6331 11.712 94.2731 12.32C94.9238 12.928 95.2491 13.712 95.2491 14.672C95.2491 15.8027 94.8651 16.6667 94.0971 17.264C93.3291 17.8613 92.1931 18.16 90.6891 18.16C90.0171 18.16 89.3185 18.0587 88.5931 17.856C87.8678 17.6427 87.2598 17.3707 86.7691 17.04L87.4091 14.912C88.4971 15.6587 89.6278 16.032 90.8011 16.032C91.3558 16.032 91.7718 15.92 92.0491 15.696C92.3371 15.4613 92.4811 15.136 92.4811 14.72C92.4811 14.3787 92.3638 14.1013 92.1291 13.888C91.9051 13.6747 91.5051 13.4827 90.9291 13.312C89.4678 12.8853 88.4171 12.368 87.7771 11.76C87.1371 11.1413 86.8171 10.3787 86.8171 9.472C86.8171 8.45867 87.1958 7.65333 87.9531 7.056C88.7211 6.45867 89.7931 6.16 91.1691 6.16C92.6305 6.16 93.8998 6.416 94.9771 6.928L94.4811 9.04Z" fill="white"/>
<path d="M60.19 41V31.06H64.446C64.8847 31.06 65.286 31.1533 65.65 31.34C66.014 31.5173 66.3313 31.76 66.602 32.068C66.8727 32.3667 67.0827 32.7073 67.232 33.09C67.3813 33.4633 67.456 33.846 67.456 34.238C67.456 34.6953 67.3673 35.1293 67.19 35.54C67.022 35.9507 66.7793 36.3007 66.462 36.59C66.154 36.8793 65.79 37.08 65.37 37.192L67.778 41H66.35L64.082 37.43H61.45V41H60.19ZM61.45 36.31H64.46C64.8053 36.31 65.104 36.2167 65.356 36.03C65.6173 35.834 65.818 35.5773 65.958 35.26C66.1073 34.9427 66.182 34.602 66.182 34.238C66.182 33.8647 66.098 33.524 65.93 33.216C65.762 32.8987 65.5427 32.6467 65.272 32.46C65.0013 32.2733 64.7027 32.18 64.376 32.18H61.45V36.31ZM72.1968 41.14C71.4688 41.14 70.8248 40.9673 70.2648 40.622C69.7048 40.2767 69.2661 39.8147 68.9488 39.236C68.6314 38.6573 68.4728 38.0273 68.4728 37.346C68.4728 36.6553 68.6314 36.0253 68.9488 35.456C69.2661 34.8867 69.7048 34.4293 70.2648 34.084C70.8341 33.7387 71.4828 33.566 72.2108 33.566C72.9481 33.566 73.5874 33.7433 74.1288 34.098C74.6794 34.4433 75.1041 34.9007 75.4028 35.47C75.7108 36.03 75.8648 36.6367 75.8648 37.29C75.8648 37.4953 75.8554 37.654 75.8368 37.766H69.7748C69.8121 38.242 69.9428 38.6667 70.1668 39.04C70.4001 39.404 70.6988 39.6933 71.0628 39.908C71.4268 40.1133 71.8188 40.216 72.2388 40.216C72.6868 40.216 73.1068 40.104 73.4988 39.88C73.9001 39.656 74.1754 39.362 74.3248 38.998L75.3888 39.292C75.1554 39.8333 74.7494 40.2767 74.1708 40.622C73.5921 40.9673 72.9341 41.14 72.1968 41.14ZM69.7328 36.912H74.7168C74.6794 36.436 74.5441 36.016 74.3108 35.652C74.0774 35.288 73.7788 35.0033 73.4148 34.798C73.0508 34.5927 72.6494 34.49 72.2108 34.49C71.7814 34.49 71.3848 34.5927 71.0208 34.798C70.6568 35.0033 70.3581 35.288 70.1248 35.652C69.9008 36.016 69.7701 36.436 69.7328 36.912ZM76.7582 37.36C76.7582 36.6693 76.8982 36.0393 77.1782 35.47C77.4676 34.8913 77.8596 34.4293 78.3542 34.084C78.8582 33.7387 79.4322 33.566 80.0762 33.566C80.6642 33.566 81.1916 33.72 81.6582 34.028C82.1249 34.336 82.4889 34.7093 82.7502 35.148V30.78H83.9822V39.6C83.9822 39.8893 84.1129 40.0387 84.3742 40.048V41C84.1409 41.0373 83.9589 41.056 83.8282 41.056C83.5856 41.056 83.3709 40.972 83.1842 40.804C83.0069 40.636 82.9182 40.4493 82.9182 40.244V39.628C82.6289 40.0947 82.2416 40.4633 81.7562 40.734C81.2709 41.0047 80.7669 41.14 80.2442 41.14C79.5722 41.14 78.9702 40.9673 78.4382 40.622C77.9156 40.2673 77.5049 39.8053 77.2062 39.236C76.9076 38.6573 76.7582 38.032 76.7582 37.36ZM82.7502 38.438V36.338C82.6382 36.0207 82.4562 35.736 82.2042 35.484C81.9522 35.2227 81.6676 35.0173 81.3502 34.868C81.0422 34.7093 80.7342 34.63 80.4262 34.63C79.9502 34.63 79.5302 34.7607 79.1662 35.022C78.8116 35.2833 78.5316 35.624 78.3262 36.044C78.1302 36.464 78.0322 36.9073 78.0322 37.374C78.0322 37.8593 78.1396 38.3073 78.3542 38.718C78.5782 39.1287 78.8816 39.46 79.2642 39.712C79.6469 39.9547 80.0716 40.076 80.5382 40.076C80.8369 40.076 81.1449 40.006 81.4622 39.866C81.7796 39.7167 82.0596 39.516 82.3022 39.264C82.5449 39.012 82.6942 38.7367 82.7502 38.438ZM96.5201 32.18H93.0901V41H91.8301V32.18H88.4001V31.06H96.5201V32.18ZM99.4311 41.14C98.7031 41.14 98.0591 40.9673 97.4991 40.622C96.9391 40.2767 96.5005 39.8147 96.1831 39.236C95.8658 38.6573 95.7071 38.0273 95.7071 37.346C95.7071 36.6553 95.8658 36.0253 96.1831 35.456C96.5005 34.8867 96.9391 34.4293 97.4991 34.084C98.0685 33.7387 98.7171 33.566 99.4451 33.566C100.182 33.566 100.822 33.7433 101.363 34.098C101.914 34.4433 102.338 34.9007 102.637 35.47C102.945 36.03 103.099 36.6367 103.099 37.29C103.099 37.4953 103.09 37.654 103.071 37.766H97.0091C97.0465 38.242 97.1771 38.6667 97.4011 39.04C97.6345 39.404 97.9331 39.6933 98.2971 39.908C98.6611 40.1133 99.0531 40.216 99.4731 40.216C99.9211 40.216 100.341 40.104 100.733 39.88C101.134 39.656 101.41 39.362 101.559 38.998L102.623 39.292C102.39 39.8333 101.984 40.2767 101.405 40.622C100.826 40.9673 100.168 41.14 99.4311 41.14ZM96.9671 36.912H101.951C101.914 36.436 101.778 36.016 101.545 35.652C101.312 35.288 101.013 35.0033 100.649 34.798C100.285 34.5927 99.8838 34.49 99.4451 34.49C99.0158 34.49 98.6191 34.5927 98.2551 34.798C97.8911 35.0033 97.5925 35.288 97.3591 35.652C97.1351 36.016 97.0045 36.436 96.9671 36.912ZM103.895 38.886C103.895 38.4193 104.025 38.018 104.287 37.682C104.557 37.3367 104.926 37.0707 105.393 36.884C105.859 36.6973 106.401 36.604 107.017 36.604C107.343 36.604 107.689 36.632 108.053 36.688C108.417 36.7347 108.739 36.8093 109.019 36.912V36.38C109.019 35.82 108.851 35.3813 108.515 35.064C108.179 34.7373 107.703 34.574 107.087 34.574C106.685 34.574 106.298 34.6487 105.925 34.798C105.561 34.938 105.173 35.1433 104.763 35.414L104.315 34.546C104.791 34.2193 105.267 33.9767 105.743 33.818C106.219 33.65 106.713 33.566 107.227 33.566C108.16 33.566 108.897 33.8273 109.439 34.35C109.98 34.8633 110.251 35.582 110.251 36.506V39.6C110.251 39.8893 110.381 40.0387 110.643 40.048V41C110.521 41.0187 110.414 41.0327 110.321 41.042C110.237 41.0513 110.167 41.056 110.111 41.056C109.821 41.056 109.602 40.9767 109.453 40.818C109.313 40.6593 109.233 40.4913 109.215 40.314L109.187 39.852C108.869 40.2627 108.454 40.58 107.941 40.804C107.427 41.028 106.919 41.14 106.415 41.14C105.929 41.14 105.495 41.042 105.113 40.846C104.73 40.6407 104.431 40.37 104.217 40.034C104.002 39.6887 103.895 39.306 103.895 38.886ZM108.655 39.404C108.767 39.2733 108.855 39.1427 108.921 39.012C108.986 38.872 109.019 38.7553 109.019 38.662V37.752C108.421 37.5187 107.805 37.402 107.171 37.402C106.545 37.402 106.037 37.528 105.645 37.78C105.262 38.0227 105.071 38.3587 105.071 38.788C105.071 39.0213 105.131 39.25 105.253 39.474C105.383 39.6887 105.57 39.866 105.813 40.006C106.065 40.146 106.373 40.216 106.737 40.216C107.119 40.216 107.483 40.1413 107.829 39.992C108.174 39.8333 108.449 39.6373 108.655 39.404ZM123.239 41H122.007V36.912C122.007 36.1467 121.881 35.582 121.629 35.218C121.386 34.854 121.022 34.672 120.537 34.672C120.042 34.672 119.594 34.854 119.193 35.218C118.791 35.5727 118.507 36.0347 118.339 36.604V41H117.107V36.912C117.107 36.1373 116.985 35.5727 116.743 35.218C116.5 34.854 116.136 34.672 115.651 34.672C115.165 34.672 114.717 34.8493 114.307 35.204C113.905 35.5493 113.621 36.0113 113.453 36.59V41H112.221V33.692H113.341V35.26C113.639 34.7187 114.027 34.3033 114.503 34.014C114.979 33.7153 115.515 33.566 116.113 33.566C116.719 33.566 117.205 33.734 117.569 34.07C117.933 34.3967 118.157 34.8213 118.241 35.344C118.894 34.1587 119.823 33.566 121.027 33.566C121.587 33.566 122.025 33.7013 122.343 33.972C122.669 34.2333 122.898 34.5973 123.029 35.064C123.169 35.5213 123.239 36.044 123.239 36.632V41ZM128.891 41V31.06H130.151V41H128.891ZM139.696 32.18H136.266V41H135.006V32.18H131.576V31.06H139.696V32.18ZM150.083 33.146C149.849 32.8847 149.49 32.6467 149.005 32.432C148.519 32.2173 147.978 32.11 147.381 32.11C146.615 32.11 146.051 32.2547 145.687 32.544C145.323 32.8333 145.141 33.23 145.141 33.734C145.141 34.0887 145.234 34.3687 145.421 34.574C145.607 34.7793 145.892 34.9473 146.275 35.078C146.667 35.2087 147.161 35.344 147.759 35.484C148.449 35.6333 149.047 35.8153 149.551 36.03C150.055 36.2447 150.442 36.534 150.713 36.898C150.983 37.2527 151.119 37.7287 151.119 38.326C151.119 38.9607 150.96 39.4833 150.643 39.894C150.325 40.3047 149.891 40.608 149.341 40.804C148.799 41 148.188 41.098 147.507 41.098C145.957 41.098 144.609 40.6313 143.461 39.698L144.063 38.634C144.268 38.8393 144.543 39.0447 144.889 39.25C145.243 39.4553 145.645 39.628 146.093 39.768C146.55 39.8987 147.031 39.964 147.535 39.964C148.244 39.964 148.795 39.838 149.187 39.586C149.579 39.3247 149.775 38.9467 149.775 38.452C149.775 38.0787 149.663 37.78 149.439 37.556C149.224 37.332 148.902 37.1453 148.473 36.996C148.043 36.8467 147.521 36.6973 146.905 36.548C146.233 36.38 145.668 36.198 145.211 36.002C144.753 35.7967 144.408 35.5307 144.175 35.204C143.951 34.8773 143.839 34.4527 143.839 33.93C143.839 33.2953 143.993 32.7587 144.301 32.32C144.609 31.8813 145.033 31.55 145.575 31.326C146.116 31.102 146.727 30.99 147.409 30.99C148.071 30.99 148.673 31.0927 149.215 31.298C149.765 31.5033 150.251 31.7787 150.671 32.124L150.083 33.146ZM155.814 41.14C155.086 41.14 154.442 40.9673 153.882 40.622C153.322 40.2767 152.883 39.8147 152.566 39.236C152.249 38.6573 152.09 38.0273 152.09 37.346C152.09 36.6553 152.249 36.0253 152.566 35.456C152.883 34.8867 153.322 34.4293 153.882 34.084C154.451 33.7387 155.1 33.566 155.828 33.566C156.565 33.566 157.205 33.7433 157.746 34.098C158.297 34.4433 158.721 34.9007 159.02 35.47C159.328 36.03 159.482 36.6367 159.482 37.29C159.482 37.4953 159.473 37.654 159.454 37.766H153.392C153.429 38.242 153.56 38.6667 153.784 39.04C154.017 39.404 154.316 39.6933 154.68 39.908C155.044 40.1133 155.436 40.216 155.856 40.216C156.304 40.216 156.724 40.104 157.116 39.88C157.517 39.656 157.793 39.362 157.942 38.998L159.006 39.292C158.773 39.8333 158.367 40.2767 157.788 40.622C157.209 40.9673 156.551 41.14 155.814 41.14ZM153.35 36.912H158.334C158.297 36.436 158.161 36.016 157.928 35.652C157.695 35.288 157.396 35.0033 157.032 34.798C156.668 34.5927 156.267 34.49 155.828 34.49C155.399 34.49 155.002 34.5927 154.638 34.798C154.274 35.0033 153.975 35.288 153.742 35.652C153.518 36.016 153.387 36.436 153.35 36.912ZM164.715 34.77C164.099 34.7793 163.553 34.938 163.077 35.246C162.611 35.5447 162.279 35.96 162.083 36.492V41H160.851V33.692H161.999V35.386C162.251 34.882 162.583 34.476 162.993 34.168C163.413 33.8507 163.852 33.6733 164.309 33.636C164.403 33.636 164.482 33.636 164.547 33.636C164.613 33.636 164.669 33.6407 164.715 33.65V34.77ZM168.037 41L165.167 33.692H166.455L168.751 39.824L171.047 33.692H172.251L169.381 41H168.037ZM173.484 32.32V30.78H174.716V32.32H173.484ZM173.484 41V33.692H174.716V41H173.484ZM179.945 41.14C179.217 41.14 178.573 40.9673 178.013 40.622C177.453 40.2673 177.014 39.8007 176.697 39.222C176.379 38.6433 176.221 38.0133 176.221 37.332C176.221 36.6413 176.375 36.0113 176.683 35.442C176.991 34.8727 177.425 34.42 177.985 34.084C178.545 33.7387 179.193 33.566 179.931 33.566C180.649 33.566 181.275 33.7293 181.807 34.056C182.348 34.3733 182.749 34.8027 183.011 35.344L181.807 35.722C181.62 35.3767 181.359 35.1107 181.023 34.924C180.687 34.728 180.313 34.63 179.903 34.63C179.455 34.63 179.044 34.7467 178.671 34.98C178.307 35.2133 178.017 35.5353 177.803 35.946C177.588 36.3473 177.481 36.8093 177.481 37.332C177.481 37.8453 177.588 38.312 177.803 38.732C178.027 39.1427 178.321 39.4693 178.685 39.712C179.058 39.9547 179.469 40.076 179.917 40.076C180.206 40.076 180.481 40.0247 180.743 39.922C181.013 39.8193 181.247 39.684 181.443 39.516C181.648 39.3387 181.788 39.1473 181.863 38.942L183.067 39.306C182.852 39.838 182.46 40.2767 181.891 40.622C181.331 40.9673 180.682 41.14 179.945 41.14ZM187.628 41.14C186.9 41.14 186.256 40.9673 185.696 40.622C185.136 40.2767 184.698 39.8147 184.38 39.236C184.063 38.6573 183.904 38.0273 183.904 37.346C183.904 36.6553 184.063 36.0253 184.38 35.456C184.698 34.8867 185.136 34.4293 185.696 34.084C186.266 33.7387 186.914 33.566 187.642 33.566C188.38 33.566 189.019 33.7433 189.56 34.098C190.111 34.4433 190.536 34.9007 190.834 35.47C191.142 36.03 191.296 36.6367 191.296 37.29C191.296 37.4953 191.287 37.654 191.268 37.766H185.206C185.244 38.242 185.374 38.6667 185.598 39.04C185.832 39.404 186.13 39.6933 186.494 39.908C186.858 40.1133 187.25 40.216 187.67 40.216C188.118 40.216 188.538 40.104 188.93 39.88C189.332 39.656 189.607 39.362 189.756 38.998L190.82 39.292C190.587 39.8333 190.181 40.2767 189.602 40.622C189.024 40.9673 188.366 41.14 187.628 41.14ZM185.164 36.912H190.148C190.111 36.436 189.976 36.016 189.742 35.652C189.509 35.288 189.21 35.0033 188.846 34.798C188.482 34.5927 188.081 34.49 187.642 34.49C187.213 34.49 186.816 34.5927 186.452 34.798C186.088 35.0033 185.79 35.288 185.556 35.652C185.332 36.016 185.202 36.436 185.164 36.912Z" fill="white"/>
<path d="M38 12C34.6863 12 32 9.31371 32 6C32 2.68629 34.6863 -4.07115e-07 38 -2.62268e-07C41.3137 -1.17422e-07 44 2.68629 44 6C44 9.31371 41.3137 12 38 12Z" fill="#EE1A2D"/>
<path d="M22 12C18.6863 12 16 9.31371 16 6C16 2.68629 18.6863 -1.1065e-06 22 -9.61651e-07C25.3137 -8.16804e-07 28 2.68629 28 6C28 9.31371 25.3137 12 22 12Z" fill="#EE1A2D"/>
<path d="M6 12C2.68629 12 -4.07115e-07 9.31371 -2.62268e-07 6C-1.17422e-07 2.68629 2.68629 -1.80588e-06 6 -1.66103e-06C9.31371 -1.51619e-06 12 2.68629 12 6C12 9.31371 9.31371 12 6 12Z" fill="#EE1A2D"/>
<path d="M38 28C34.6863 28 32 25.3137 32 22C32 18.6863 34.6863 16 38 16C41.3137 16 44 18.6863 44 22C44 25.3137 41.3137 28 38 28Z" fill="#EE1A2D"/>
<path d="M22 28C18.6863 28 16 25.3137 16 22C16 18.6863 18.6863 16 22 16C25.3137 16 28 18.6863 28 22C28 25.3137 25.3137 28 22 28Z" fill="#EE1A2D"/>
<path d="M6 28C2.68629 28 -1.1065e-06 25.3137 -9.61651e-07 22C-8.16804e-07 18.6863 2.68629 16 6 16C9.31371 16 12 18.6863 12 22C12 25.3137 9.31371 28 6 28Z" fill="#EE1A2D"/>
<path d="M38 44C34.6863 44 32 41.3137 32 38C32 34.6863 34.6863 32 38 32C41.3137 32 44 34.6863 44 38C44 41.3137 41.3137 44 38 44Z" fill="#EE1A2D"/>
<path d="M22 44C18.6863 44 16 41.3137 16 38C16 34.6863 18.6863 32 22 32C25.3137 32 28 34.6863 28 38C28 41.3137 25.3137 44 22 44Z" fill="#EE1A2D"/>
<path d="M6 44C2.68629 44 -1.80588e-06 41.3137 -1.66103e-06 38C-1.51619e-06 34.6863 2.68629 32 6 32C9.31371 32 12 34.6863 12 38C12 41.3137 9.31371 44 6 44Z" fill="#EE1A2D"/>
<path fill-rule="evenodd" clip-rule="evenodd" d="M26.7981 18.3975C24.1578 14.8809 24.1578 13.1191 26.7981 9.60252L17.2019 9.60252C19.8422 13.1191 19.8422 14.8809 17.2019 18.3975L26.7981 18.3975Z" fill="#EE1A2D"/>
<path fill-rule="evenodd" clip-rule="evenodd" d="M25.6025 10.7981C29.1191 8.15777 30.8809 8.15777 34.3975 10.7981L34.3975 1.20189C30.8809 3.84223 29.1191 3.84223 25.6025 1.20189L25.6025 10.7981Z" fill="#EE1A2D"/>
<path fill-rule="evenodd" clip-rule="evenodd" d="M10.7981 34.3975C8.15777 30.8809 8.15777 29.1191 10.7981 25.6025L1.20189 25.6025C3.84222 29.1191 3.84222 30.8809 1.20189 34.3975L10.7981 34.3975Z" fill="#EE1A2D"/>
<path fill-rule="evenodd" clip-rule="evenodd" d="M9.60252 42.7981C13.1191 40.1578 14.8809 40.1578 18.3975 42.7981L18.3975 33.2019C14.8809 35.8422 13.1191 35.8422 9.60252 33.2019L9.60252 42.7981Z" fill="#EE1A2D"/>
</svg>
