<svg xmlns="http://www.w3.org/2000/svg" viewBox="0 0 1280 640" role="img" aria-label="Static world map">
  <defs>
    <linearGradient id="water" x1="0" x2="0" y1="0" y2="1">
      <stop offset="0" stop-color="#cfe8f3"/>
      <stop offset="0.55" stop-color="#b8dbe8"/>
      <stop offset="1" stop-color="#a6cfdf"/>
    </linearGradient>
    <linearGradient id="land" x1="0" x2="0" y1="0" y2="1">
      <stop offset="0" stop-color="#f5f3ed"/>
      <stop offset="1" stop-color="#dedbd2"/>
    </linearGradient>
    <filter id="landShadow" x="-2%" y="-2%" width="104%" height="104%">
      <feDropShadow dx="0" dy="1.2" stdDeviation="1.2" flood-color="#64748b" flood-opacity="0.16"/>
    </filter>
  </defs>
  <rect width="1280" height="640" fill="url(#water)"/>
  <g opacity="0.42" stroke="#ffffff" stroke-width="0.85" fill="none">
    <path d="M0 454.1H1280"/><path d="M0 376H1280"/><path d="M0 320H1280"/><path d="M0 264H1280"/><path d="M0 185.9H1280"/>
    <path d="M106.7 0V640"/><path d="M213.3 0V640"/><path d="M320 0V640"/><path d="M426.7 0V640"/><path d="M533.3 0V640"/><path d="M640 0V640"/><path d="M746.7 0V640"/><path d="M853.3 0V640"/><path d="M960 0V640"/><path d="M1066.7 0V640"/><path d="M1173.3 0V640"/><path d="M1280 0V640"/>
  </g>
  <g fill="url(#land)" stroke="#cfcac0" stroke-width="0.85" filter="url(#landShadow)">
    <path d="M428.2 568.6 L427.1 573.9 L426.1 578.9 L418.6 577.4 L410.7 578.1 L406.3 574.4 L406.3 573.9 L404.3 570.8 L412.3 571.2 L420 572.3 L422.6 568 L424.5 564.4 L428.2 568.6 Z"/>
    <path d="M73.9 563.1 L67.1 564.5 L62.4 561 L60.3 557.7 L60.2 557.2 L57.9 554.7 L57.9 554.7 L60.1 551.4 L66.7 552.8 L70.2 555.6 L73 558.8 L73.9 563.1 Z"/>
    <path d="M479.4 549.9 L483.8 553.6 L485.4 559.2 L485.8 563.3 L485.9 568.4 L480.4 571.7 L474.6 574.4 L468 577 L460.5 579.2 L452.1 578.6 L447.4 574.9 L448 570.5 L455.6 567.6 L458.7 564.3 L460.9 560.1 L462.5 556.6 L464.7 553.5 L467 549.9 L467 549.9 L468.8 549.9 L474.1 548 L479.4 549.9 Z"/>
    <path d="M209 516.7 L213.6 517.7 L217.9 516.6 L215.9 518.8 L212.5 520.4 L207.6 519.9 L204 517.7 L204 517.7 L204.8 515.6 L209 516.7 Z"/>
    <path d="M193.6 516.6 L199 519.1 L196.9 518.8 L192.3 518.2 L187.4 516.5 L187.4 516.5 L190 515.1 L193.6 516.6 Z"/>
    <path d="M288.1 507.3 L292 508.1 L295.9 507.4 L298 510.7 L295.2 510.3 L290.9 510.5 L286.5 510.3 L281.7 510.6 L278 509.5 L276.2 507.1 L276.2 507.1 L278.4 506.1 L282.9 506.9 L288.1 507.3 Z"/>
    <path d="M396.6 501.9 L397 504.3 L396.4 506.5 L395.4 508.7 L391.3 509.5 L387.3 510.6 L382.6 510.5 L384.4 508.2 L380.2 509 L376.2 509.8 L373.5 508.1 L373.3 505.8 L377.2 503.6 L377.2 503.6 L379.6 502.9 L383.7 503.1 L384.8 500.4 L385 498.4 L384.9 494.2 L386.9 491.9 L390.2 491.1 L392.1 492.9 L392.9 494.8 L394.5 497.2 L395.6 499.4 L396.6 501.9 Z"/>
    <path d="M431.6 469.9 L430.1 470.8 L427.4 470.2 L424.5 470.6 L422.1 471.5 L419.5 472.6 L417.7 473.8 L417.2 475.5 L417.5 477.1 L419.1 478.6 L416.7 479.6 L413.3 480 L411.4 481.5 L409.3 482.9 L407.1 484.9 L406.5 486.6 L407.8 488.6 L409.7 490.1 L412.6 491.3 L415.3 492.8 L416.8 494.8 L417.5 496.7 L418.6 498.8 L420.2 500.6 L421.3 502.6 L421.8 507.8 L422.8 509.9 L423.1 512.2 L424.2 514.6 L423.7 517.9 L421.8 520.6 L419.7 522.7 L415 523.7 L413.3 526 L411.2 528.3 L405.8 531 L401.1 532.1 L396.6 533.7 L391.8 535.3 L389 538.4 L383.3 538.7 L377 538.4 L371.4 539 L365.4 539 L366.5 542.1 L371.9 543.5 L375.9 545.7 L378.1 548.7 L374.1 551.4 L368 550.5 L362.9 552.8 L362.7 556.5 L362.6 560.1 L366.8 563.3 L367.5 567 L372.1 570.8 L379.6 572.5 L386 575.5 L391.1 579 L397.5 582.6 L406.4 584.5 L415.1 587.8 L421.1 591.5 L427.8 595.9 L431.2 602.4 L433 607.9 L437.3 602.7 L443.2 598.6 L449.4 594.3 L456.7 591 L463.1 587.6 L471.9 587.3 L480.6 589 L487.8 592 L490.1 586.6 L495 583.1 L504 582.8 L511.1 580.3 L517.7 577.9 L525.1 576.3 L533 574.4 L538.5 571.7 L536 568 L534.5 564.5 L534.5 560.8 L527.6 561.2 L520.2 562.7 L513.3 562.7 L512.3 559.2 L512.8 552.4 L514.4 550.5 L519.5 548.5 L525.5 546.5 L529.8 544.1 L534.1 541.8 L537.3 538.7 L542.2 537.4 L547 536.3 L549.4 535.7 L554.9 535.4 L560.1 534.4 L564.5 533 L568.9 531.3 L572.8 529.6 L577.7 527.4 L580.8 525.1 L584.2 523.1 L585.2 520.6 L581.5 519 L582.7 516.4 L585.1 514.5 L588.8 513.3 L592.7 511.9 L596.3 510 L599.1 507.8 L600.8 505.1 L603.4 503.6 L607.6 503.9 L609.4 505.7 L613.6 506 L613.8 503.9 L615.6 501.7 L619.4 502.3 L620.3 504.3 L624.6 504.6 L629.2 503.7 L633.6 503 L637.7 503.3 L639.2 505.6 L643.1 503.8 L646.7 502.8 L650.7 502 L654.7 501.3 L658.3 500 L662.3 499.2 L665.4 498.1 L667.5 496.2 L670.2 497.5 L673.9 496.8 L676.4 499.3 L678.5 501.2 L682.5 500.1 L684.1 498.1 L687.7 496.6 L692.4 496.9 L693.8 498.9 L696.7 496.9 L700.5 496.3 L704.7 496.1 L708.5 496.2 L712.4 496.8 L716.3 497.1 L717.9 498.9 L720.2 500.5 L724.1 499.5 L728.3 499.3 L732.4 499.3 L736.3 499.2 L739.9 498.5 L743.6 497.9 L746.8 496.4 L750.1 495.5 L753.7 495 L756.5 493.6 L758.4 490.9 L760.4 489.3 L764.1 490 L765.5 491.8 L768.6 492.9 L772.3 492.5 L774.8 494.3 L777.4 495.6 L781 494.4 L782.3 492.2 L785.5 491.4 L789.2 489.7 L792.7 489.1 L796.8 488.1 L799.6 487.1 L802.6 486 L805.3 485 L808.7 485.5 L811.9 483.9 L814.2 482.6 L817.5 482.7 L820.5 481.6 L821.2 480 L824.1 478.8 L827.1 478 L830.6 477.3 L833.9 476.9 L837 477.2 L840.4 477.6 L843.2 478.8 L843.6 480.7 L846.7 482.3 L848.9 483.5 L853.1 484.1 L855.5 485.3 L858.4 486.6 L861.8 486.9 L864.7 486 L867.7 484.1 L871.1 485.1 L874.6 485.6 L877.9 486.2 L881.4 486.5 L884.9 486.5 L887.9 491.6 L887.7 492.8 L887.3 495.1 L883.9 496.4 L881.1 498.4 L881.6 500.5 L885.6 500.3 L885.1 502.5 L883.3 504.5 L881.6 506.9 L884.3 508.7 L888.4 509.2 L892.5 508.2 L894.5 506 L895.7 503.9 L897.6 502.2 L899.8 500.6 L900.8 498.7 L902.6 496.1 L904.9 495.6 L908.9 495.4 L912.4 494.8 L916.1 494 L917.8 492 L918.9 490.2 L921.3 488.4 L924.8 487.2 L927.8 486.3 L929.7 484.7 L931.7 483.9 L934.3 483.1 L937.9 483.6 L941.1 483.1 L944.6 482.6 L948.5 482.9 L951 481.6 L952.8 478.7 L954.2 479.9 L955.8 482 L958.8 482.9 L962.2 483.2 L965.7 482.7 L969.3 483.1 L972.6 483.1 L974.8 482.7 L977.8 483 L980.6 484 L983.8 483.3 L987.6 483.3 L990.9 482.7 L994.6 483.3 L996.9 481.8 L998.7 480.3 L1001.2 479.1 L1005.6 475.8 L1007.9 476.4 L1010.6 477.6 L1013 479.2 L1017.5 481.9 L1021 482 L1024.3 482 L1028.1 481.5 L1031.9 480.8 L1034.9 479.6 L1037.3 478.3 L1041.3 478.1 L1043.9 477.2 L1046.7 478.1 L1048.5 479.4 L1051 480.8 L1054.9 480.7 L1057.4 481.8 L1061.6 483 L1066.1 483.4 L1069.8 483.1 L1072.5 481.6 L1074.9 480.2 L1078.1 479.9 L1081.3 480.5 L1085 480.9 L1088.4 480.2 L1091.6 480.2 L1094.7 480.7 L1098 481.1 L1101.2 480.3 L1105 479.6 L1108.6 479.4 L1112.7 479.4 L1115.9 479 L1119.1 478.7 L1120.1 476.5 L1120.3 474.8 L1122.5 475.9 L1123.1 477.9 L1124.3 479.7 L1125.8 481.2 L1128.7 482 L1132.8 481.7 L1137.5 481.6 L1140.7 481.4 L1145.3 481.4 L1148.7 481.3 L1153.3 481.5 L1157.3 481.8 L1159.8 483.2 L1159.1 485 L1161.4 486.3 L1165.2 487.5 L1169.2 488.7 L1173.8 489.5 L1178.6 490.3 L1182.2 491.1 L1186.3 491.2 L1188.6 489.5 L1191.7 490.9 L1194.4 492.4 L1197.6 493.6 L1201.9 494.1 L1206 494.7 L1207.7 496.7 L1211.8 498 L1214.5 499.8 L1218.4 500.7 L1222.6 500.6 L1226.4 500.9 L1230.6 500.8 L1234.9 501.2 L1238.8 501.9 L1242.5 503.2 L1246.2 504.3 L1248.7 506 L1248.3 508.2 L1246.4 510.3 L1244.8 513 L1243.6 515.1 L1241.9 517.7 L1237.2 518.7 L1235.2 520.9 L1230.6 522.4 L1229 525 L1226.5 527.5 L1223.9 529.7 L1222.5 532.7 L1221.6 535.4 L1221.2 538.9 L1221.3 541.8 L1223.3 544.9 L1224.1 548 L1225.8 551 L1232.4 552.2 L1233.8 556.1 L1227.4 557.5 L1221.9 559.5 L1215.2 559.9 L1212.2 565.4 L1211.5 570.2 L1210 574.2 L1208.1 578.3 L1212.9 582.1 L1214.7 587.1 L1217.7 591.8 L1222.1 596.2 L1227 600.5 L1232.4 604.9 L1240.5 609.6 L1242.3 617.4 L1252.6 621.1 L1253.3 622.4 L1255.9 627.6 L1265.7 623.1 L1273.9 628.7 L1280 633.3 L1280 640 L0 640 L0 633.3 L0.2 633.4 L3.3 622.8 L9.8 628.4 L10.2 627.7 L11.2 626.2 L12.4 624.4 L13.4 622.8 L13.9 622.1 L14.5 622.1 L14.8 622.4 L20 629.9 L24.5 622.4 L25.3 621.4 L35.7 618.4 L39.1 622.4 L40.8 624.5 L46.1 630.5 L56.2 635.4 L64.2 640 L78 640 L88.2 640 L103.3 640 L111.9 640 L121.3 640 L131.2 639.8 L131.9 630.5 L117.9 629.8 L106.5 625.5 L103.5 618.7 L93.9 615.2 L94.5 608.1 L95.9 602.1 L97.2 596.9 L96.5 591.5 L90.6 588.1 L87.9 583.8 L82.4 580.1 L91 580.8 L99.2 579 L104.4 582.8 L110.7 579.4 L116.5 575.3 L119.4 571.7 L118.2 567.4 L113.6 564.7 L108.3 561.8 L101 561.2 L94.6 559.9 L87.7 559 L85.4 555.6 L80.8 552.8 L78 549.7 L76.9 540.4 L78.7 541.1 L81.9 543.7 L87.7 542.9 L93.4 541.8 L96.3 545.3 L101.9 544.5 L106.7 542.7 L111.1 540.5 L115.2 538 L120.5 537.2 L120.4 534.4 L119.1 531.7 L120.2 529.2 L124.8 527.9 L126.9 530.3 L132.3 528.9 L136.4 527.1 L141.5 527 L146.3 526.3 L151.1 524.7 L154.9 523.3 L159.2 521.8 L162 522.2 L164.5 522.7 L169.8 521.8 L174.5 523 L179.4 522.9 L184 522 L188.8 522.6 L194.1 523.3 L199.1 523 L204.2 523.1 L209.5 523.3 L214.4 523 L218 521.1 L222.3 520.1 L226.8 521.5 L231 520.3 L234.9 518.1 L237.2 520.1 L238.4 522.4 L240.7 524.6 L244.4 522.6 L248.7 525.1 L253.5 525.9 L257.6 527.8 L262.6 527.4 L267.1 526.2 L272.5 526.4 L277.3 527.4 L282.1 528.6 L284 525.6 L281.7 523.4 L280 521.1 L275.4 520.6 L273.4 518.2 L272.6 515.8 L271.4 511.3 L274.1 512.1 L278.7 512.5 L283.3 512.1 L287.5 513.1 L291.1 514.9 L292.7 517.1 L297.5 517.4 L302.1 516.6 L306.9 515.4 L311.3 514.6 L314.9 516.1 L319.7 515.6 L322.7 511 L325.6 513.7 L329.7 514.7 L334.2 514.1 L337.1 516.6 L341.8 516.8 L346.1 517.6 L350.3 518.9 L353.1 516.6 L354.5 514.4 L358.1 516.8 L362.9 516.2 L366.6 517.6 L369 519.7 L373.7 519 L377.4 517.7 L381 516.1 L385.4 515.2 L390.4 514.5 L394.9 513.7 L398.4 512.4 L400.5 510.5 L401.3 508 L400.9 505.6 L399.8 503.4 L398.5 501.3 L397.4 499.2 L396.5 497.3 L396.3 495.3 L396.6 493.3 L398.3 491.5 L399.7 489.4 L400.3 487.6 L399.6 485.5 L399.1 483.7 L400.9 481.6 L402.8 480.3 L405.1 478.7 L407.6 477.3 L410.4 476 L411.8 474.2 L413.8 473 L416 472 L419.4 471.7 L421.6 470.4 L424.1 469.6 L427.1 469.1 L429.6 468.1 L431.7 466.9 L434.4 466.4 L436.5 467.4 L435.2 468.7 L431.6 469.9 Z"/>
    <path d="M399.1 434.1 L403.7 435.9 L408.7 436.6 L407.1 438.2 L403.7 438.3 L401.9 437.2 L400.7 438.5 L397.7 439.5 L393.8 439.1 L391.3 438.2 L387.5 437.7 L383.1 436 L379.4 434.4 L374.5 431 L377.5 431.7 L382.5 433.6 L387.2 434.7 L389 433.4 L390.2 431.3 L393.4 430.1 L396 430.4 L396 430.4 L397.3 431.8 L399.1 434.1 Z"/>
    <path d="M431.8 426 L434.7 427.3 L433.6 428.3 L428.8 429.2 L427.2 428.2 L424.2 429.5 L422.4 428.2 L426.7 426.5 L429.7 427.2 L431.8 426 Z"/>
    <path d="M889.9 422.1 L884.4 422.3 L884.3 420.9 L884.9 419.7 L885.1 419.2 L887.4 420 L890.8 420.4 L890.9 420.9 L889.9 422.1 Z"/>
    <path d="M1157 399.6 L1160.4 400.4 L1162.3 400 L1165.1 399.6 L1167.3 399.8 L1167.5 402.6 L1166.3 403.4 L1165.9 405.3 L1164.7 404.7 L1162.2 406.4 L1161.5 406.3 L1159.3 406.2 L1157.1 404.1 L1156.6 402.5 L1154.6 400.4 L1154.6 399.4 L1157 399.6 Z"/>
    <path d="M1255.2 399.9 L1256 400.8 L1258.5 399.9 L1259.5 400.9 L1259.6 401.9 L1258.2 403 L1255.9 404.8 L1254.1 405.7 L1255.4 406.9 L1252.7 407 L1249.6 407.9 L1248.7 409.5 L1246.6 412.1 L1243.8 413.2 L1242.1 414 L1238.8 413.9 L1236.5 413.1 L1232.6 412.9 L1232 411.9 L1233.9 410.1 L1238.4 407.6 L1240.7 407.1 L1243.3 406.2 L1246.3 404.9 L1248.4 403.7 L1250 401.9 L1251.4 401.3 L1251.9 399.9 L1254.4 398.9 L1255.2 399.9 Z"/>
    <path d="M1260.8 389 L1263.4 391.4 L1263.5 389.8 L1265.1 390.4 L1265.6 392.1 L1268.5 392.9 L1270.9 393 L1272.9 392.2 L1274.7 392.4 L1273.9 394.5 L1272.8 395.8 L1270.1 395.7 L1269.1 396.4 L1269.5 397.4 L1268.9 397.9 L1267.6 399.1 L1265.8 400.7 L1263.1 401.7 L1262.5 401.1 L1261 400.7 L1263 398.8 L1261.9 397.5 L1258 396.6 L1258.1 395.7 L1260.7 394.9 L1261.3 393.2 L1261.1 391.7 L1259.7 390.3 L1259.8 389.9 L1258.1 388.9 L1255.3 387 L1253.8 385.5 L1255.1 385.3 L1257.1 386.5 L1259.8 387.1 L1260.8 389 Z"/>
    <path d="M1234.2 360.4 L1232.9 360.9 L1230.9 360.4 L1228.4 359.5 L1226.1 358.5 L1223.7 357.1 L1223.2 356.5 L1224.7 356.5 L1226.7 357.2 L1228.3 357.8 L1229.4 358.4 L1232.4 359.5 L1234.2 360.4 Z"/>
    <path d="M1274.2 351.3 L1275.4 351.8 L1274.9 352.8 L1272.6 353.1 L1270.7 352.8 L1270.3 352 L1271.7 351.4 L1273.3 351.6 L1274.2 351.3 Z"/>
    <path d="M1277.7 350.3 L1275.5 350.7 L1275 350 L1276.8 349.6 L1277.9 349.5 L1280 348.9 L1280 349.8 L1277.7 350.3 Z"/>
    <path d="M0.3 349.8 L0 349.8 L0 348.9 L0.7 348.9 L0.3 349.8 Z"/>
    <path d="M1236.8 349.7 L1235.6 349.9 L1234.4 349.1 L1234.5 348.6 L1236.8 349.7 Z"/>
    <path d="M1234.2 346.9 L1234.7 348.3 L1233.8 348.1 L1233 348.2 L1232.5 347.7 L1232.5 346.3 L1234.2 346.9 Z"/>
    <path d="M818 344.3 L818.6 346.5 L819.5 347.4 L819.1 348.3 L818.5 348.8 L817.3 347.7 L816.6 348.3 L817.3 349.7 L817 350.4 L816 350.9 L815.8 352.5 L814.4 354.6 L812.6 357.2 L810.4 360.9 L809.1 363.5 L807.5 365.8 L804.6 366.3 L801.5 367.1 L799.4 366.6 L796.6 365.9 L795.6 364.9 L795.4 363.1 L794.1 361.6 L793.8 360.2 L794.4 358.8 L796.1 358.5 L796.1 357.9 L797.8 356.4 L798.1 355.2 L797.3 354.3 L796.6 353.2 L796.3 351.4 L797.6 350.4 L798 349.2 L799.8 349.2 L801.8 348.8 L803.1 348.4 L804.7 348.4 L806.7 347.4 L809.6 346.2 L810.7 345.3 L810.2 344.5 L811.7 344.7 L813.7 343.5 L813.7 342.4 L814.9 341.6 L816.2 342.3 L817.1 343.1 L818 344.3 Z"/>
    <path d="M1150.4 344.7 L1151.7 346.1 L1154 345.5 L1155.2 346.2 L1156.9 346.9 L1156.5 347.8 L1157.3 349.4 L1157.8 350.3 L1158.7 350.5 L1159.7 352.1 L1159.3 353.1 L1160.5 354.3 L1164.3 355.3 L1166.9 356.2 L1169.2 357 L1168.8 357.5 L1170.8 358.7 L1172.2 360.8 L1173.6 360.3 L1175.1 361.2 L1175.9 360.9 L1176.5 362.9 L1179.1 364.1 L1180.7 364.9 L1183.5 366.5 L1184.5 368 L1184.6 369.2 L1184.3 370.4 L1186 372.1 L1185.8 373.9 L1185.2 374.8 L1184.2 376.7 L1184.3 377.9 L1183.6 379.3 L1182 381.3 L1179.4 382.3 L1178.1 383.9 L1176.9 385 L1175.9 386.9 L1174.5 388 L1173.6 389.6 L1173.1 391.1 L1173.3 391.8 L1171.3 392.6 L1167.3 392.7 L1164 393.6 L1162.4 394.5 L1160.2 395.5 L1157.3 394.5 L1155.1 394.1 L1155.7 392.9 L1153.7 393.3 L1150.6 395 L1147.5 394.4 L1145.5 394 L1143.5 393.8 L1140 393.2 L1137.7 391.8 L1137.1 390.1 L1136.3 389 L1134.5 388.1 L1131.1 387.8 L1132.3 386.8 L1131.4 385.2 L1129.7 386.7 L1126.5 387.1 L1128.4 385.9 L1128.9 384.6 L1130.3 383.6 L1130 382 L1127.1 383.8 L1124.9 384.5 L1123.5 386.3 L1120.7 385.4 L1120.9 384.2 L1118.6 382.7 L1116.7 381.9 L1117.4 381.4 L1112.9 380.1 L1110.4 380.1 L1106.9 379 L1100.6 379.2 L1096 380 L1091.9 380.7 L1088.5 380.6 L1084.8 381.6 L1081.7 382.1 L1081 383.2 L1079.7 384.1 L1076.7 384.2 L1074.4 384.3 L1071.3 384 L1068.7 384.2 L1066.3 384.3 L1064.2 385.4 L1063.1 385.3 L1061.4 385.9 L1059.6 386.6 L1057.1 386.6 L1054.7 386.6 L1050.9 385.2 L1049 384.8 L1049.1 383.5 L1050.8 383.2 L1051.4 382.8 L1051.3 382 L1051.7 380.5 L1051.3 379.3 L1049.5 377.2 L1048.9 376 L1049 374.8 L1047.6 373.5 L1047.5 372.9 L1046 372.1 L1045.5 370.6 L1043.5 369 L1043 368.1 L1044.5 369 L1043.3 367.1 L1045.1 367.7 L1046.2 368.5 L1046.1 367.5 L1044.3 365.9 L1044 365.3 L1043.2 364.7 L1043.6 363.6 L1044.3 363.1 L1044.8 362.1 L1044.4 361 L1045.9 359.6 L1046.1 361.1 L1047.6 359.8 L1050.5 359.1 L1052.3 358.3 L1055 357.6 L1056.6 357.5 L1057.6 357.7 L1060.4 357 L1062.5 356.8 L1063.1 356.4 L1064 356.2 L1066 356.3 L1069.7 355.7 L1071.6 354.9 L1072.6 353.9 L1074.6 352.9 L1074.8 352.2 L1074.9 351.1 L1077.4 349.6 L1078.9 351.2 L1080.4 350.8 L1079.1 349.9 L1080.2 349 L1081.8 349.4 L1082.2 348 L1084.2 347.1 L1085 346.4 L1086.8 346.1 L1086.9 345.6 L1088.4 345.8 L1088.5 345.3 L1090.1 345.1 L1091.8 344.8 L1094.4 345.6 L1096.4 346.7 L1098.6 346.7 L1100.9 346.9 L1100.1 345.9 L1101.8 344.4 L1103.4 344 L1102.9 343.5 L1104.4 342.5 L1106.6 341.8 L1108.4 342 L1111.4 341.7 L1111.3 340.8 L1108.7 340.2 L1110.6 339.9 L1113 340.4 L1114.8 341.1 L1117.8 341.6 L1118.9 341.4 L1121.1 341.9 L1123.1 341.4 L1124.5 341.6 L1125.3 341.2 L1126.9 342.1 L1126 343.1 L1124.6 343.8 L1123.4 343.9 L1123.8 344.6 L1122.8 345.6 L1121.5 346.5 L1121.8 347 L1124.6 348 L1127.3 348.6 L1129.2 349.2 L1131.7 350.3 L1132.7 350.3 L1134.6 350.8 L1135.1 351.4 L1138.5 352 L1140.9 351.4 L1141.6 350.4 L1142.3 349.5 L1142.7 348.5 L1143.8 347.1 L1143.3 346.2 L1143.6 345.6 L1143.2 344.6 L1143.6 343.2 L1144.3 342.8 L1143.8 342.2 L1144.6 341.3 L1145.3 340.3 L1145.4 339.8 L1146.7 339.1 L1147.7 340 L1148 341.1 L1148.9 341.3 L1149 342.1 L1150.3 343 L1150.6 344 L1150.4 344.7 Z"/>
    <path d="M1216.4 338.7 L1217.4 339.4 L1214.9 339.4 L1213.6 338.2 L1215.7 338.7 L1216.4 338.7 Z"/>
    <path d="M1069.2 338.3 L1067.7 338.3 L1063 337.1 L1066.3 336.7 L1068.2 337.3 L1069.4 337.8 L1069.2 338.3 Z"/>
    <path d="M1211.9 337.6 L1210.5 337.7 L1208.4 337.5 L1207.6 337.2 L1207.8 336.5 L1210.2 336.8 L1211.3 337.2 L1211.9 337.6 Z"/>
    <path d="M1214.9 337.1 L1214.3 337.5 L1211.7 335.9 L1211 334.8 L1212.2 334.8 L1213.4 336.3 L1214.9 337.1 Z"/>
    <path d="M1082.4 338.1 L1079.4 338.5 L1079 338.3 L1079.3 337.7 L1080.8 336.6 L1084.3 335.9 L1084.8 335.4 L1087.8 335 L1090.3 335 L1091.4 334.8 L1092.7 335 L1091.4 335.5 L1087.7 336.3 L1084.8 336.8 L1082.4 338.1 Z"/>
    <path d="M1059.2 334.4 L1060.5 334.9 L1062.7 334.8 L1063.6 335.5 L1059.5 335.9 L1057 336.1 L1055.1 336.1 L1056.3 335.1 L1058.2 335.1 L1059.2 334.4 Z"/>
    <path d="M1077 334.4 L1076.5 335.4 L1071.1 335.9 L1066.4 335.7 L1066.4 335.1 L1069.2 334.7 L1071.4 335.2 L1073.8 335.1 L1077 334.4 Z"/>
    <path d="M1208.4 334.9 L1208.6 335.2 L1205.8 334.5 L1203.9 333.8 L1202.5 333.2 L1203.1 333 L1204.7 333.5 L1207.6 334.3 L1208.4 334.9 Z"/>
    <path d="M1200.1 333.1 L1199.4 333.2 L1197.9 332.8 L1196.4 332.1 L1196.6 331.8 L1198.7 332.5 L1200.1 333.1 Z"/>
    <path d="M1026.2 332.1 L1033 332.3 L1033.8 331.5 L1040.4 332.4 L1041.7 333.5 L1047 333.9 L1051.4 334.9 L1047.3 335.6 L1043.4 334.9 L1040.2 334.9 L1036.5 334.8 L1033.2 334.5 L1029.1 333.8 L1026.5 333.6 L1025 333.8 L1018.5 333.1 L1017.9 332.3 L1014.6 332.2 L1017.1 330.5 L1021.4 330.6 L1024.3 331.3 L1025.7 331.4 L1026.2 332.1 Z"/>
    <path d="M1119 331.1 L1117.2 332.3 L1116.8 330.9 L1117.5 330.3 L1118.2 329.7 L1119 330.2 L1119 331.1 Z"/>
    <path d="M1194.2 332.2 L1193.2 332.3 L1191.7 331.6 L1190.1 330.5 L1189.4 329.1 L1189.9 329 L1190.3 329.5 L1191.3 329.9 L1193.1 331 L1194.7 331.7 L1194.2 332.2 Z"/>
    <path d="M1180.4 329.8 L1178.5 329.9 L1178 330.4 L1176 330.8 L1174.2 331.3 L1172.3 331.3 L1169.4 330.7 L1167.4 330.2 L1167.7 329.7 L1170.8 329.9 L1172.8 329.8 L1173.3 328.9 L1173.8 328.9 L1174.2 329.9 L1176.2 329.7 L1177.2 329.1 L1179.2 328.5 L1178.8 327.4 L1180.9 327.4 L1181.6 327.7 L1181.6 328.7 L1180.4 329.8 Z"/>
    <path d="M1092.4 326.2 L1091.1 326.7 L1088.7 326.4 L1088 325.7 L1091.6 325.6 L1092.4 326.2 Z"/>
    <path d="M1103.9 325.5 L1105.2 326.9 L1102.2 326.1 L1099.2 326 L1097.2 326.1 L1094.8 326 L1095.6 325.1 L1100 325 L1103.9 325.5 Z"/>
    <path d="M1184.5 328 L1183.4 328.5 L1182.7 327.4 L1181.9 326.7 L1180.3 326.2 L1178.3 325.4 L1175.7 324.9 L1176.7 324.4 L1178.6 324.9 L1179.8 325.3 L1181.3 325.8 L1182.7 326.5 L1184.1 327.1 L1184.5 328 Z"/>
    <path d="M1117 322 L1117.9 324.9 L1121.6 326 L1124.6 324.1 L1128.7 323 L1131.8 323 L1134.9 323.6 L1137.5 324.3 L1141.3 324.6 L1147.5 325.9 L1154.1 326.9 L1156.5 327.8 L1158.5 328.7 L1159 329.7 L1165 330.8 L1165.8 331.8 L1162.6 332 L1163.3 333.2 L1166.5 334.3 L1168.8 336.3 L1170.9 336.2 L1170.7 337 L1173.5 337.3 L1172.4 337.6 L1176.2 338.4 L1175.8 338.9 L1173.4 339 L1172.6 338.6 L1169.5 338.4 L1165.9 338.1 L1163.1 337 L1161.1 336 L1159.3 334.4 L1154.6 333.6 L1151.6 334.1 L1149.5 334.7 L1149.9 336 L1147.1 336.7 L1145.1 336.4 L1141.5 336.3 L1138.3 334.8 L1134.7 334.4 L1133.8 335 L1129.3 335 L1130.8 333.5 L1133 333 L1132.1 331.1 L1130.4 329.6 L1123.5 328.1 L1120.6 327.9 L1115.2 326.3 L1114.2 327.2 L1112.8 327.3 L1112 326.7 L1112 325.9 L1109.3 325 L1113.1 324.4 L1115.7 324.4 L1115.4 323.9 L1110.2 323.9 L1108.8 322.9 L1105.6 322.5 L1104.1 321.7 L1108.9 321.2 L1110.7 320.7 L1116.4 321.4 L1117 322 Z"/>
    <path d="M1085.3 317.5 L1082.4 319.2 L1079.8 319.6 L1076.3 319.2 L1070.4 319.3 L1067.3 319.6 L1066.8 320.9 L1070 322.5 L1071.9 321.7 L1078.5 321.1 L1078.3 321.9 L1076.7 321.7 L1075.2 322.7 L1072 323.4 L1075.4 325.7 L1074.7 326.3 L1077.9 328.3 L1077.9 329.5 L1076 330 L1074.6 329.4 L1076.3 327.9 L1072.8 328.6 L1072 328.1 L1072.4 327.5 L1069.9 326.4 L1070.1 324.7 L1067.8 325.2 L1068.1 327.3 L1068.2 329.8 L1065.9 330.1 L1064.4 329.6 L1065.4 327.9 L1064.9 326.2 L1063.4 326.2 L1062.3 325 L1063.8 323.8 L1064.3 322.4 L1066 319.7 L1066.8 319 L1069.8 317.7 L1072.6 318.2 L1077.1 318.4 L1081.2 318.4 L1084.7 317.1 L1085.3 317.5 Z"/>
    <path d="M1097.6 318 L1097.4 319.5 L1095.5 319.4 L1095 320.4 L1096.5 321.4 L1095.5 321.6 L1094 320.5 L1093 318.2 L1093.7 316.8 L1094.9 316.1 L1095.1 317.1 L1097.2 317.3 L1097.6 318 Z"/>
    <path d="M1016.2 330.4 L1012.3 330.5 L1009.3 329 L1004.7 327.5 L1003.2 326.4 L1000.5 325 L998.8 323.6 L996.1 321.2 L992.9 319.7 L991.9 318.1 L990.6 316.8 L987.4 315.6 L985.5 314.1 L982.8 313.1 L979.1 311.2 L978.8 310.2 L981.1 310.3 L986.6 310.7 L989.8 312.4 L992.5 313.6 L994.5 314.4 L997.8 316.3 L1001.5 316.3 L1004.4 317.5 L1006.5 319 L1009.2 319.8 L1007.8 321.3 L1009.8 321.9 L1011.1 321.9 L1011.7 323.2 L1012.9 324.2 L1015.5 324.3 L1017.3 325.4 L1016.4 327.7 L1016.2 330.4 Z"/>
    <path d="M1059.1 316.8 L1063.1 318.4 L1058.9 318.6 L1057.7 319.8 L1057.9 321.4 L1054.4 322.6 L1054.3 324.4 L1053 327.1 L1052.4 326.5 L1048.4 327.3 L1047 326.2 L1044.5 326.1 L1042.7 325.5 L1038.5 326.2 L1037.2 325.3 L1034.8 325.4 L1031.9 325.2 L1031.4 322.8 L1029.6 322.3 L1027.9 320.8 L1027.4 319.3 L1027.8 317.6 L1029.9 316.4 L1032.5 317 L1035.3 316.7 L1036 315.2 L1037.5 314.9 L1041.8 314.5 L1044.3 313.1 L1046.1 311.9 L1047.5 311.3 L1050.5 310.3 L1053.2 309.1 L1055 307.7 L1056.5 307.7 L1058.3 308.6 L1058.5 309.3 L1060.8 309.8 L1063.8 310.4 L1063.5 311.1 L1061.1 311.2 L1061.8 312 L1059.1 312.6 L1057.1 314.2 L1059.7 315.9 L1059.1 316.8 Z"/>
    <path d="M1089.3 305 L1089.7 306.2 L1089.9 307.2 L1088.7 308.8 L1087.4 307 L1085.7 307.9 L1086.9 309.2 L1085.9 310.1 L1081.7 309 L1080.7 307.7 L1081.8 306.9 L1079.5 306 L1078.4 306.8 L1076.7 306.7 L1074.1 307.7 L1073.5 307.2 L1074.9 305.7 L1077.1 305.2 L1079.1 304.5 L1080.3 305.3 L1083 304.8 L1083.6 304 L1086.1 304 L1085.9 302.6 L1088.8 303.4 L1089.1 304.3 L1089.3 305 Z"/>
    <path d="M928.8 309 L925.7 309.4 L924 307.9 L923.4 305.4 L925 302.4 L927.4 303.5 L929.1 304.7 L930.8 306.6 L930.3 308.5 L928.8 309 Z"/>
    <path d="M423.3 301.9 L420.4 302.1 L419.7 302 L420.8 301.5 L420.7 300.8 L422.7 300.5 L423.5 300.6 L423.3 301.9 Z"/>
    <path d="M1080.8 301.6 L1079.5 302.2 L1078.4 303.4 L1077.3 303.9 L1075.1 302.6 L1075.9 302.2 L1076.8 301.7 L1077.1 300.5 L1079.1 300.4 L1078.5 301.6 L1081.2 299.9 L1080.8 301.6 Z"/>
    <path d="M1061.3 303.4 L1056.6 305.1 L1058.4 303.8 L1060.9 302.7 L1063.1 301.5 L1064.9 299.7 L1065.6 301.1 L1063.2 302.1 L1061.3 303.4 Z"/>
    <path d="M1073.4 298.7 L1075.5 299.3 L1077.8 299.3 L1077.7 300 L1076 300.8 L1073.8 301.3 L1073.7 300.5 L1073.9 299.6 L1073.4 298.7 Z"/>
    <path d="M1086.2 298.2 L1087.2 300.2 L1084.5 299.8 L1084.6 300.4 L1085.4 301.5 L1083.7 301.9 L1083.6 300.6 L1082.5 300.5 L1082 299.4 L1084.1 299.6 L1084 298.9 L1081.8 297.5 L1085.3 297.5 L1086.2 298.2 Z"/>
    <path d="M1072.1 296.6 L1071.2 298.1 L1069.6 297.2 L1067.8 295.8 L1070.9 295.9 L1072.1 296.6 Z"/>
    <path d="M1071.4 286.5 L1073.6 287.1 L1074.7 286.6 L1075 287 L1074.4 287.8 L1075.6 289.2 L1074.7 290.7 L1072.6 291.3 L1072 292.8 L1072.8 294.3 L1074.7 294.5 L1076.3 294.2 L1080.7 295.3 L1080.4 296.3 L1081.5 296.7 L1081.2 297.5 L1078.4 296.6 L1077.1 295.7 L1076.2 296.3 L1073.9 295.3 L1070.7 295.5 L1068.9 295.1 L1069.1 294.4 L1070.2 293.9 L1069.1 293.5 L1068.7 294.1 L1066.9 293.1 L1066.4 292.3 L1066.3 290.5 L1067.7 291.1 L1068.1 288.2 L1069.2 286.5 L1071.4 286.5 Z"/>
    <path d="M406.8 287 L405.9 287.5 L403.2 287.5 L401.1 287.6 L400.9 286.8 L401.4 286.5 L404.3 286.5 L406.1 286.7 L406.8 287 Z"/>
    <path d="M366.6 287.7 L365.5 288 L363.5 287.7 L361.5 287 L361.9 286.6 L363.4 286.5 L364.2 286.5 L366.6 286.7 L368.5 287.2 L369.1 287.7 L366.6 287.7 Z"/>
    <path d="M381.9 283.9 L385 284.2 L385.5 283.9 L388.2 283.9 L390.3 284.4 L391.3 284.4 L391.9 285 L393.9 285 L393.8 285.6 L395.3 285.6 L397.1 286.3 L395.8 287.1 L394.1 286.7 L392.4 286.7 L391.3 286.7 L390.6 287 L389.3 287.1 L388.7 286.7 L387.6 286.9 L386.1 288.2 L385.2 287.9 L385 287.4 L382.7 287.1 L381 287.2 L378.8 287.1 L377.2 287.4 L375.3 286.8 L375.6 286.2 L378.8 286.5 L381.5 286.6 L382.8 286.2 L381.2 285.4 L381.2 284.7 L379 284.4 L379.8 283.9 L381.9 283.9 Z"/>
    <path d="M1032.3 286.2 L1029.2 287.1 L1026.3 286.5 L1026.2 284.9 L1028 284 L1031.9 283.5 L1033.9 283.6 L1034.7 284.3 L1033.1 285.1 L1032.3 286.2 Z"/>
    <path d="M87 285.4 L86.4 285.7 L85.6 285.5 L85.7 284.9 L85.1 284.3 L85.2 284.1 L85.9 283.7 L85.6 283.4 L85.8 283.2 L86.1 283.2 L87.5 283.5 L88.1 283.7 L88.7 284 L89.6 284.6 L89.5 284.7 L88.1 285.1 L87 285.4 Z"/>
    <path d="M85.1 282.5 L83.9 282.6 L83.2 282.2 L82.8 282.1 L82.8 281.9 L83.2 281.8 L84.4 282 L85.3 282.3 L85.1 282.5 Z"/>
    <path d="M82.6 281.5 L82.5 281.7 L80.6 281.6 L80.9 281.4 L82.6 281.5 Z"/>
    <path d="M79.5 281.2 L79.3 281.3 L79 281.3 L77.8 281.2 L77.3 280.8 L77.2 280.7 L78.1 280.4 L78.4 280.6 L79.5 281.2 Z"/>
    <path d="M73.4 279.9 L73 280.1 L71.8 279.8 L72 279.6 L72.5 279.4 L73.4 279.5 L73.4 279.9 Z"/>
    <path d="M356.7 278.4 L358.1 279.1 L361.4 278.9 L362.7 279.4 L365.7 280.5 L367.9 281.4 L369.1 281.4 L371.2 281.8 L370.9 282.3 L373.6 282.4 L376.3 283.2 L375.8 283.6 L373.5 283.8 L371.1 283.9 L368.6 283.8 L363.5 284 L365.9 282.9 L364.5 282.4 L362.2 282.3 L360.9 281.7 L360.1 280.7 L358.1 280.7 L354.8 280.2 L353.7 279.8 L349.1 279.5 L347.8 279.1 L349.2 278.7 L345.7 278.6 L343.1 279.6 L341.7 279.6 L341.1 280.1 L339.4 280.3 L337.9 280.1 L339.7 279.5 L340.5 278.8 L342.1 278.4 L343.9 278 L346.6 277.8 L347.5 277.6 L350.6 277.7 L353.4 277.8 L356.7 278.4 Z"/>
    <path d="M364.3 276.5 L363.4 276.6 L362.5 275.5 L361.2 274.9 L362 273.7 L363.1 273.7 L364.3 275.4 L364.3 276.5 Z"/>
    <path d="M1070.8 278.4 L1069.3 279.9 L1067.4 278.3 L1067 276.9 L1069.1 275 L1072 273.5 L1073.6 274.1 L1073 275.3 L1070.8 278.4 Z"/>
    <path d="M363.3 271 L359.4 271.3 L359.2 270.5 L360.9 270.4 L363.2 270.4 L363.3 271 Z"/>
    <path d="M366.2 270.9 L365.6 272.3 L365 272.1 L365 271.1 L363.4 270.3 L363.4 270 L366.2 270.9 Z"/>
    <path d="M1118.7 255.3 L1119.2 256.1 L1117.2 257.4 L1115.7 256.7 L1113.9 257.2 L1112.9 258.4 L1110.6 257.8 L1110.7 256.8 L1112.6 255.5 L1114.6 255.8 L1116.1 254.9 L1118.7 255.3 Z"/>
    <path d="M762.9 252 L760.5 253 L760.8 253.4 L760.9 253.6 L757.3 254.4 L755.5 254.1 L754.7 253.3 L756.4 253.2 L756.6 253.2 L757.1 252.7 L759.7 252.7 L762.9 252 Z"/>
    <path d="M724.3 252 L726.2 252.7 L729 252.6 L731.6 252.7 L731.5 253.1 L733.5 252.9 L733 253.5 L727.9 253.7 L727.9 253.3 L723.6 252.9 L724.3 252 Z"/>
    <path d="M695.2 246.3 L693.9 248.1 L694.4 248.8 L693.7 250 L691 249.1 L689.2 248.9 L684.2 247.7 L684.7 246.6 L688.9 246.8 L692.5 246.5 L695.2 246.3 Z"/>
    <path d="M672.7 239.5 L674.9 241.1 L674.4 244.2 L672.8 244 L671.3 244.8 L670 244.2 L669.8 241.4 L669 240.1 L671 240.2 L672.7 239.5 Z"/>
    <path d="M1141.2 248.8 L1139.9 250.6 L1140.5 251.7 L1138.7 253.2 L1134.1 254.2 L1127.9 254.4 L1122.8 256.8 L1120.4 256 L1120.3 254.4 L1114.1 254.9 L1109.9 255.9 L1105.7 255.9 L1109.3 257.5 L1107 261 L1104.7 261.9 L1102.9 261.1 L1103.8 259.2 L1101.6 258.6 L1100.1 257.2 L1103.5 256.5 L1105.3 255.2 L1108.9 254 L1111.5 252.6 L1118.6 251.9 L1122.4 252.4 L1126.1 248.4 L1128.5 249.5 L1133.7 247.3 L1135.7 246.4 L1138 243.6 L1137.4 241 L1138.9 239.5 L1142.6 239.1 L1144.6 242.3 L1144.5 244.2 L1141.2 246.5 L1141.2 248.8 Z"/>
    <path d="M674 237.2 L672.8 239.1 L671.2 238.6 L670.4 237 L671.1 236.1 L673.4 235.1 L674 237.2 Z"/>
    <path d="M1151.7 232.3 L1154.2 232.8 L1156.7 231.8 L1157.5 234.5 L1152.2 235.2 L1149.1 237.6 L1143.5 235.9 L1141.6 238.6 L1137.6 238.6 L1137.1 236.2 L1138.9 234.4 L1142.7 234.2 L1143.7 230.8 L1144.8 228.8 L1149 231.4 L1151.7 232.3 Z"/>
    <path d="M413.6 226.3 L416.2 226.6 L419.5 226.5 L417.8 227.6 L416.4 227.8 L411.9 226.7 L411 225.8 L412.4 225 L413.6 226.3 Z"/>
    <path d="M420.2 219.5 L418.5 219.6 L413.9 218.7 L410.6 217.4 L411.8 217.2 L416.5 217.9 L420.1 219 L420.2 219.5 Z"/>
    <path d="M200.9 221.1 L199.1 221.5 L193.2 220.3 L192.2 219.3 L189 218.3 L188.3 217.6 L184.7 217.1 L183.3 215.6 L183.6 214.9 L187.3 215.5 L189.5 215.9 L192.9 216.2 L194.1 217.2 L195.8 218.5 L199.4 219.6 L200.9 221.1 Z"/>
    <path d="M440.4 215.1 L438.1 217.6 L440.4 216.6 L442.8 217.2 L441.5 218.2 L444.7 218.9 L446.3 218.3 L449.9 219.1 L448.8 221.1 L451.2 220.6 L451.7 222.1 L452.8 223.7 L451.3 226 L449.7 226.1 L447.4 225.6 L448.1 223.5 L447.1 223.1 L443 225.4 L440.9 225.3 L443.4 224.1 L440 223.4 L436.2 223.6 L429.3 223.5 L428.7 222.7 L430.9 221.8 L429.4 221.1 L432.4 219.4 L436.1 215.1 L438.3 213.4 L441.3 212.5 L443 212.6 L442.3 213.4 L440.4 215.1 Z"/>
    <path d="M168.1 205.4 L168.1 205.4 L168.1 205.4 L168.1 205.4 L171.6 205.1 L170.5 208.5 L173.6 210.9 L172.2 210.9 L170 209.5 L168.7 208.2 L166.9 207.3 L166.3 205.9 L166.5 205 L168.1 205.4 Z"/>
    <path d="M1150.7 215 L1154.3 219.9 L1149.1 219 L1146.9 222.8 L1150.3 225.5 L1150.2 227.3 L1147.5 225.8 L1145.2 227.8 L1144.6 225.6 L1145 223.1 L1144.5 220.2 L1145.4 218.1 L1145.5 214.4 L1143.4 211.6 L1143.8 207.6 L1147 206.2 L1145.6 204.8 L1147.2 204.4 L1148.1 206.4 L1149.4 209.2 L1149.3 212.1 L1150.7 215 Z"/>
    <path d="M615.9 210.6 L609.6 212.4 L604.5 211.9 L607.4 208.9 L605.6 205.9 L610.4 203.5 L613.1 202 L616.1 201.9 L619.9 203.8 L618 205.9 L618.5 208 L615.9 210.6 Z"/>
    <path d="M685.1 200.5 L683 203 L679.3 201.3 L678.8 200 L684 198.9 L685.1 200.5 Z"/>
    <path d="M96 195.7 L92.4 196.9 L90.6 196.1 L90.1 194.6 L93.3 193.4 L95.2 192.9 L97.5 193.1 L99.1 194.1 L96 195.7 Z"/>
    <path d="M629.3 190.6 L625.5 194.3 L629.1 193.8 L633 193.8 L632.1 196.5 L628.9 199.4 L632.6 199.6 L636 203.6 L638.5 204.1 L640.7 207.5 L641.7 208.7 L646 209.2 L645.5 211.1 L643.7 212 L645.2 213.4 L642 214.9 L637.2 214.9 L631.1 215.7 L629.5 215.1 L627.1 216.4 L623.8 216.1 L621.4 217.2 L619.5 216.6 L624.7 213.7 L627.9 213 L622.3 212.6 L621.3 211.4 L625 210.5 L623 209 L623.7 207 L629 207.3 L629.5 205.5 L627.1 203.6 L622.8 203.1 L621.9 202.2 L623.2 200.8 L622.1 200 L620.1 201.5 L619.9 198.4 L618.1 196.8 L619.4 193.4 L622.2 190.6 L625 190.9 L629.3 190.6 Z"/>
    <path d="M51.3 186.2 L49.1 186.7 L46.8 186.1 L44.6 185.1 L48.1 184.5 L50.9 184.8 L51.3 186.2 Z"/>
    <path d="M358.2 177.9 L356.8 179.9 L355.2 179.6 L354.3 178.5 L354.4 178.2 L355.8 177 L357.3 177.1 L358.2 177.9 Z"/>
    <path d="M348.8 175.8 L344.6 177.9 L342.1 177.8 L341.4 176.8 L344 175 L348.9 175 L348.8 175.8 Z"/>
    <path d="M29.4 171.6 L31.6 172.3 L33.8 171.9 L36.7 173 L40.2 173.5 L39.9 173.9 L37.2 174.8 L34.5 173.9 L33.2 173.2 L30 173.4 L29.2 173.1 L29.4 171.6 Z"/>
    <path d="M337.2 163.8 L337.9 165.6 L339.7 165 L341.8 166.1 L345.6 167.5 L349.7 168.8 L350 170.8 L352.6 170.5 L355.2 171.8 L352 173 L346.5 172.1 L344.5 170.3 L341 172.4 L335.9 174.5 L334.7 172.1 L329.9 172.5 L333 170.5 L333.4 167.3 L334.6 163.4 L337.2 163.8 Z"/>
    <path d="M588.4 160.3 L587.6 163.1 L591.6 166 L587 169.2 L576.7 172 L573.7 172.7 L569 172.1 L559.1 170.8 L562.6 169 L554.8 167 L561.1 166.2 L561 164.9 L553.5 164 L555.9 161.1 L561.3 160.5 L566.8 163.4 L572.2 161.1 L576.7 162.3 L582.5 159.9 L588.4 160.3 Z"/>
    <path d="M370.3 157.1 L366.3 157.4 L365.4 155.1 L366.9 152.5 L370.2 151.8 L372.9 153.1 L373 155.1 L372.6 155.8 L370.3 157.1 Z"/>
    <path d="M17.7 159.7 L20.1 160.8 L19.3 157.5 L29 158.2 L35.9 162.4 L32.4 164.3 L26.6 164.7 L26.5 168.8 L25 169.7 L21.7 169.5 L19 168.1 L14.3 166.9 L13.5 165 L9.9 164.3 L5.8 164.9 L3.9 163.4 L4.7 161.8 L0.4 162.8 L2 164.8 L0 166.6 L0 148.5 L8.7 152.2 L18 156.9 L17.7 159.7 Z"/>
    <path d="M299.9 147.8 L297.7 149.5 L292.9 148 L290 148.6 L285.2 146.3 L288.3 144.7 L290.8 142.5 L294.6 144 L296.7 144.9 L297.8 145.9 L299.9 147.8 Z"/>
    <path d="M1280 138.8 L1276.1 139.1 L1275.5 137.4 L1280 135.1 L1280 138.8 Z"/>
    <path d="M4.6 138.5 L0 138.8 L0 135.1 L0.5 134.8 L3.5 134.8 L8.6 136.4 L8.3 137.2 L4.6 138.5 Z"/>
    <path d="M318.1 145.8 L318 150.9 L322.8 147 L327 150.2 L326 153.8 L329.4 156.9 L333.1 153.5 L335.7 149.4 L335.9 143.8 L341 144.2 L346.2 145 L351 147.5 L351.2 150 L348.6 152.5 L351.1 155.1 L350.6 157.3 L343.7 160.5 L338.7 161.1 L335 159.8 L334 162 L330.6 165.7 L329.5 167.5 L325.4 170.3 L320.3 170.6 L317.5 172.3 L317.3 174.8 L313.1 175.3 L308.8 178.4 L304.9 182.6 L303.5 185.5 L303.3 189.5 L308.6 190.1 L310.2 193.3 L311.8 195.8 L316.8 195.1 L323.4 196.6 L327 197.8 L329.5 199.3 L334 200.2 L337.7 201.5 L343.6 201.7 L347.5 202 L346.9 204.6 L348 207.7 L350.6 210.9 L355.9 213.7 L358.6 212.7 L360.5 209.8 L358.7 205.1 L356.2 203.5 L361.9 202 L365.9 199.8 L367.9 197.6 L367.6 195.4 L365.1 192.6 L360.8 190 L365 186.4 L363.5 183.1 L362.3 177.3 L364.8 176.4 L370.9 177.5 L374.5 177.8 L377.5 176.8 L380.8 178.1 L385.1 180.3 L386.2 181.7 L392.6 182 L392.5 185.1 L393.6 189.5 L396.9 190 L399.5 192 L404.6 190.2 L408 186.3 L410.4 184.7 L413.1 187.8 L417.8 192.2 L421.7 196.2 L420.3 198.2 L425 200 L428.2 201.8 L433.9 202.6 L436.1 203.6 L437.6 206.2 L440.3 206.6 L441.8 207.7 L442 211 L439.4 212.1 L436.9 213.1 L431 214.1 L426.5 216.4 L420.5 216.8 L412.9 216.2 L407.6 216.2 L403.9 216.4 L400.9 218.4 L396.4 219.6 L391.3 223.1 L387.2 225.6 L390.2 225.1 L395.9 221.7 L403.4 219.4 L408.7 219.2 L411.8 220.5 L408.5 222.3 L409.6 225.1 L410.8 227.1 L415.4 228.4 L421.3 228 L424.8 225.1 L425.1 227 L427.4 227.9 L423 229.6 L415.1 231.1 L411.6 232.1 L407.6 233.8 L404.9 233.7 L404.8 231.6 L410.9 229.5 L405.2 229.6 L401.3 229.9 L401.9 230.7 L398.1 231.9 L394.5 232.8 L390.7 233.5 L388.7 235.1 L388.2 235.5 L388.2 236.8 L389.4 238 L390.8 238.1 L390.5 237.2 L391.5 237.8 L391.2 238.4 L388.8 238.8 L387.1 238.8 L384.5 239.2 L383 239.3 L380.9 239.4 L377.9 240.1 L383.1 239.7 L384.2 240.1 L379.2 240.8 L377 240.8 L377.1 240.5 L376 241.2 L377 241.3 L376.3 243 L373.7 244.7 L373.4 244.1 L372.6 244 L371.5 243.5 L372.2 244.7 L373 245.1 L373.1 246 L372 246.8 L370 248.6 L369.7 248.5 L370.8 247 L369 246.1 L368.5 244.3 L367.8 245.2 L368.6 246.7 L366.4 246.3 L368.7 247.1 L368.9 249.2 L369.9 249.3 L370.2 250.1 L370.7 252.3 L368.5 253.9 L364.8 254.6 L362.5 255.8 L360.7 256 L358.9 256.7 L358.4 257.5 L354.5 258.8 L352.5 259.8 L350.8 261.1 L350.3 262.5 L350.9 264 L352.1 265.7 L353.7 267.2 L353.7 268 L355.4 270.4 L355.2 271.7 L355.1 272.5 L354.2 273.7 L353.1 273.9 L351.4 273.7 L350.8 272.8 L349.5 272.4 L347.6 270.7 L345.9 269.1 L345.4 268.3 L346.1 267 L345.1 265.9 L342.4 264.2 L341 263.9 L337.4 264.8 L336.8 264.7 L335 263.7 L332.8 263.2 L328.8 263.5 L325.6 263.3 L322.9 263.4 L321.4 263.7 L322.1 264.3 L322 265.1 L322.8 265.5 L322.1 265.8 L320.8 265.5 L319.5 265.9 L316.9 265.8 L314.2 264.7 L311.1 265 L308.5 264.5 L306.3 264.6 L303.3 265.1 L300.1 266.6 L296.6 267.5 L294.6 268.5 L293.8 269.4 L293.8 270.7 L293.9 271.7 L294.6 272.4 L294.6 272.4 L294.6 272.4 L293.2 274.1 L292.6 275.5 L292.4 278.1 L292 279 L292.6 280.1 L293.7 281 L294.4 282.5 L296.8 283.9 L297.6 285 L299 285.9 L302.8 286.4 L304.3 287.2 L307.4 286.7 L310.1 286.5 L312.8 286.1 L315 285.8 L317.3 285.1 L318.1 284 L318.4 282.4 L319 281.8 L321.4 281.3 L325.2 280.9 L328.3 280.9 L330.5 280.8 L331.3 281.2 L331.2 282.1 L329.3 283.2 L328.5 284.4 L329.1 284.7 L328.6 285.5 L327.7 287 L326.8 286.5 L326 286.5 L326.1 286.8 L326.7 286.8 L326.7 287.3 L326.1 288.1 L326.4 288.4 L326 289.1 L326.3 289.3 L325.8 290.2 L325.1 290.7 L324.5 290.7 L323.8 291.4 L325 291.7 L325.3 291.4 L326.3 291.7 L326.7 291.8 L327.5 291.4 L328.5 291.4 L328.8 291.6 L329.4 291.5 L331 291.6 L332.7 291.6 L333.8 291.4 L334.2 291.2 L335.3 291.3 L336.2 291.4 L337.1 291.3 L337.8 291.2 L339.5 291.4 L340 291.5 L341.1 291.8 L342.1 292.2 L343.4 292.5 L344.4 293 L344.1 293.2 L343.9 293.6 L344.2 294.3 L343.4 294.9 L343 295.7 L342.9 296.5 L343.1 296.9 L343.2 297.7 L342.7 297.9 L342.3 298.7 L342.6 299.2 L341.8 299.6 L342 300.1 L342.6 300.4 L343.5 301.4 L344.8 302.1 L346.5 302.9 L347.8 303.6 L347.7 303.9 L349.1 304 L349.5 303.9 L350.4 304.3 L352.2 304.2 L353.7 303.7 L355.9 303.4 L357.1 302.8 L359 302.9 L358.9 303.1 L360.9 303.2 L362.5 303.5 L363.6 304 L365 304.5 L366.8 304.6 L369.5 303.3 L370.9 303.1 L371 302.5 L371.6 301 L373.7 300.2 L375.9 300.1 L376.2 299.8 L379 299.9 L381.8 299 L383.2 298.6 L384.9 297.7 L386.1 297.8 L387.1 298.3 L386.4 298.9 L386.3 299.3 L384.2 299.6 L385.3 300.4 L385.3 301.3 L383.7 302.4 L385.1 303.8 L386.6 303.7 L387.4 302.4 L386.3 301.7 L386.1 300.4 L390.6 299.6 L390.1 298.8 L391.3 298.2 L392.6 299.5 L395.1 299.5 L397.4 300.5 L397.5 301.1 L400.7 301.1 L404.5 301 L406.6 301.8 L409.3 302 L411.3 301.4 L411.3 301 L415.7 300.9 L420 300.8 L417 301.4 L418.2 302.2 L421 302.4 L423.7 303.2 L424.3 304.7 L426.1 304.6 L427.5 305.1 L429.9 305.7 L432.1 306.9 L432.2 307.8 L433.5 307.9 L435.4 308.7 L436.8 309.4 L441.1 309.7 L441.5 309.4 L444.3 309.3 L448.1 309.7 L449.4 309.9 L452 310.4 L455.7 311.9 L456.3 312.6 L457.5 312.5 L458.4 313.5 L460.4 316.6 L462.3 316.9 L462.4 318.1 L459.7 319.6 L460.8 320.1 L467.1 320.4 L467.3 322.2 L470 321 L474.4 321.7 L480.3 322.8 L482.1 323.8 L481.5 324.8 L485.6 324.2 L492.5 325.2 L497.9 325.1 L503.1 326.6 L507.7 328.6 L510.4 329.1 L513.4 329.2 L514.7 329.7 L515.9 332 L516.5 333.1 L515.1 336.1 L513.3 337.2 L508.3 339.8 L506 341.8 L503.4 343.4 L502.5 343.4 L501.5 344.8 L501.8 348.2 L500.8 351.1 L500.4 352.3 L499.3 353 L498.6 355.5 L495 358 L494.4 360 L491.5 360.8 L490.7 362 L486.8 362 L481.3 362.7 L478.7 363.6 L474.8 364.1 L470.6 365.7 L467.6 367.7 L467.1 369.1 L467.6 370.2 L467 372.3 L466.2 373.2 L463.7 374.4 L459.7 378 L456.6 379.6 L454.2 380.6 L452.6 382.6 L450.2 383.8 L448.7 385.2 L444.7 386.4 L442 386 L440.1 386.2 L436.8 385.3 L434.4 385.3 L432.3 384.1 L432 385.3 L436.5 387.1 L436 388.6 L438.3 389.6 L438.1 390.7 L434.7 393.5 L429.4 394.8 L422.3 395.2 L418.4 395 L419.1 396.4 L418.4 398.1 L419 399.3 L416.9 400.1 L413.3 400.4 L409.8 399.6 L408.5 400.2 L409 402.6 L411.4 403.3 L413.3 402.5 L414.4 403.8 L411.1 404.5 L408.2 406 L407.7 408.5 L406.9 409.9 L403.5 409.9 L400.7 411.2 L399.7 413.1 L403.2 415 L406.6 415.5 L405.4 417.9 L401.2 419.4 L398.9 422.6 L395.6 423.7 L394.2 425 L395.3 427.9 L397.7 429.6 L396.2 429.5 L393 429.4 L391.3 430.2 L388.1 431.2 L387.5 434 L386 434.1 L382 433.1 L377.9 431 L373.5 429.4 L372.4 427.5 L373.4 425.9 L371.6 424 L371.2 419.3 L372.7 416.8 L376.4 414.7 L371 414 L374.4 411.7 L375.6 407.5 L379.6 408.4 L381.4 403.3 L379.1 402.7 L378 405.7 L375.7 405.4 L376.8 401.9 L378 397.6 L379.7 396 L378.6 393.8 L378.4 391.2 L379.9 391.2 L382 387.6 L384.5 384.1 L386 381 L385.2 377.9 L386.2 376.1 L385.8 373.6 L387.9 371.2 L388.5 367.3 L389.7 363.3 L390.8 358.9 L390.5 355.8 L389.8 353.2 L386.2 352.1 L385.9 351.4 L378.9 349.5 L372.5 347.5 L369.7 346.3 L368.3 344.8 L368.9 344.3 L365.8 341.9 L362.3 338.6 L359 335 L357.5 334.1 L356.4 332.8 L353.6 331.7 L351.1 330.9 L352.3 330.1 L350.5 328.4 L351.6 327.2 L354.5 326.1 L356.4 324.7 L355.6 323.9 L354.2 324.8 L352.1 324 L352.8 323.5 L352.2 321.9 L353.5 321.6 L354.1 320.5 L355.5 319.4 L355.2 318.6 L357.2 318.3 L359.6 317.5 L359.1 317 L360.5 316.9 L360.3 316 L361.1 315.3 L362.9 315.2 L364.4 314.1 L365.8 313.2 L364.5 312.7 L365.1 311.7 L364.3 310.1 L365.1 309.6 L364.5 308.1 L363.1 307.1 L361.9 306.6 L361.1 305.6 L362 305.2 L361.1 305 L360.5 304.4 L358.7 303.9 L357.1 304.1 L356.4 304.7 L355 305.1 L354.2 305.2 L353.8 305.6 L355.5 306.5 L354.6 306.8 L354.1 307 L352.4 307.1 L351.8 306.1 L351.3 306.4 L350.2 306.3 L349.4 305.5 L348 305.4 L347.1 305.2 L345.5 305.2 L345.4 305.6 L345 305.3 L343.1 304.9 L342.4 304.6 L342.8 304.2 L342.6 303.8 L341.7 303.4 L340.3 303.1 L339 302.8 L338.8 302.3 L337.9 302 L338.1 302.5 L337.4 302.9 L336.6 302.4 L335.4 302.3 L334.9 301.9 L335 301.3 L335.4 300.8 L334.4 300.5 L335.2 300.2 L334 299.6 L332.4 298.9 L331.6 298.2 L330.1 297.7 L328.3 296.9 L328.7 296.6 L329.3 296.8 L329.5 296.7 L328.9 296.1 L327.8 296 L327.5 296.4 L325.4 296.4 L324.1 296.2 L322.6 295.9 L320.7 295.7 L319.7 295.3 L317.8 295 L315.6 295 L314 294.6 L312.1 293.9 L308.1 291.9 L306.2 291.3 L303.3 290.8 L301.3 290.9 L298.5 291.6 L296.7 291.8 L294.2 291.3 L291.5 291 L288.2 290.1 L285.5 289.9 L281.5 289 L278.5 288.1 L277.6 287.6 L275.6 287.5 L272 286.9 L270.5 286.1 L266.7 285 L264.9 283.8 L264.1 282.9 L265.3 282.7 L264.9 282.2 L265.7 281.7 L265.7 281 L264.5 280.1 L264.2 279.4 L263 278.4 L259.9 276.5 L256.3 275 L254.6 273.7 L251.5 272.9 L250.9 272.5 L251.4 271.2 L249.6 270.8 L247.5 269.8 L246.6 268.4 L244.7 268.2 L242.6 267.2 L241 266.2 L240.8 265.5 L238.9 264 L237.6 262.4 L237.7 261.6 L235.1 260.8 L233.9 260.9 L231.9 260.3 L231.3 261.2 L231.9 262.2 L232.3 263.7 L233.5 264.6 L236.1 266 L236.7 266.4 L237.3 266.6 L237.7 267.3 L238.4 267.3 L239.1 268.6 L240.1 269.1 L240.9 269.8 L243.1 270.8 L244.3 272.6 L245.4 273.5 L246.4 274.4 L246.6 275.4 L248.3 275.5 L249.7 276.4 L251 277.3 L250.9 277.6 L249.4 278.3 L248.8 278.3 L247.8 277.1 L245.5 276 L242.9 275.1 L241.1 274.6 L241.2 273.1 L240.7 272.1 L239 271.5 L236.6 270.6 L236.1 270.8 L235.2 270.3 L233 269.8 L230.9 268.7 L231.2 268.5 L232.6 268.6 L234 267.9 L234.1 267 L231.4 265.5 L229.3 265 L228 263.7 L226.6 262.3 L225 260.7 L223.5 258.8 L222.9 257.7 L220.6 256.5 L219 256.2 L218.6 255.6 L216.6 255.5 L215.3 254.9 L212 254.7 L211.1 254.4 L210.7 253.2 L207.2 251 L204.3 247.9 L204.4 247.4 L202.8 246.6 L200.1 244.7 L199.6 242.8 L197.7 241.6 L198.5 239.6 L198.4 237.6 L197.2 235.7 L198.6 233.4 L199.5 228.9 L198.8 225.5 L197.7 223.2 L196.7 222 L197.1 221.5 L202.2 222.4 L204.1 224.9 L205 224.2 L204.4 222 L203.2 219.8 L202.8 219.8 L195.9 217.1 L193.3 215.9 L186.9 214.7 L184.9 212.2 L185.4 210.4 L180.9 209.2 L180.2 206.8 L175.9 204.6 L175.9 203 L173.9 201.9 L170.8 200.9 L169.8 198.1 L165.2 195.5 L163.3 192.3 L159.9 192.1 L154.2 192 L150 191.1 L142.7 187.5 L139.3 186.8 L133.1 185.6 L128.1 185.9 L121.2 184.2 L116.9 182.7 L113 183.4 L113.7 185.9 L111.7 186.2 L107.6 186.9 L104.5 188.1 L100.6 188.8 L100.1 186.8 L101.7 183.2 L105.4 182.1 L104.5 181.2 L99.9 183.2 L97.5 185.6 L92.4 188.1 L95 189.8 L91.6 192.3 L87.8 193.7 L84.2 194.7 L83.4 196.1 L77.8 197.8 L76.7 199.3 L72.5 200.7 L70.1 200.4 L66.8 201.3 L63.2 202.4 L60.2 203.4 L54.1 204.3 L53.5 203.7 L57.4 202.3 L60.9 201.3 L64.7 199.6 L69.1 199.3 L70.9 198 L75.8 196 L76.6 195.4 L79.2 194.2 L79.8 191.7 L81.6 189.6 L77.5 190.7 L76.4 190.1 L74.5 191.3 L72.1 189.6 L71.2 190.8 L69.8 189.1 L66.3 190.5 L64.1 190.5 L63.8 188.4 L64.4 187.2 L62.2 185.9 L57.5 186.6 L54.5 184.9 L52.1 184 L52.1 182 L49.3 180.4 L50.7 178.2 L53.6 176.1 L54.9 174.1 L57.8 173.8 L60.2 174.4 L63.1 172.5 L65.7 172.9 L68.4 171.6 L67.7 169.8 L65.7 169 L68.3 167.4 L66.2 167.5 L62.4 168.4 L61.3 169.3 L58.5 168.4 L53.5 168.9 L48.3 167.9 L46.8 166.2 L42.3 163.7 L47.3 161.9 L55.2 159.7 L58.1 159.7 L57.6 161.9 L65.1 161.8 L62.3 159 L57.9 157.3 L55.4 155 L51.9 153 L47.1 151.4 L49 148.9 L55.4 148.7 L59.8 146.5 L60.7 144 L64.3 141.5 L67.8 140.9 L74.5 138.5 L77.8 138.9 L83.3 135.9 L88.6 137.1 L91.2 139.5 L92.8 138.5 L98.8 138.8 L98.6 140.1 L104 141 L107.7 140.4 L115.2 142.1 L122 142.6 L124.7 143.3 L129.5 142.4 L134.9 144 L138.7 144.7 L145.3 145.9 L150.9 148.4 L154.7 148.8 L157.8 146.7 L162.1 145.2 L167.4 145.8 L172.7 143.5 L178.5 142.2 L181 144.4 L183.6 143.2 L184.4 140.7 L186.9 141.3 L192.9 145.9 L197.6 142.4 L198.1 146.3 L202.4 145.5 L203.8 144 L208.1 144.3 L213.5 146.4 L221.9 148.3 L226.8 149.1 L230.2 148.8 L235 151.3 L230 153.6 L236.5 154.6 L246.1 154.1 L249.1 153.3 L252.9 156.1 L256.7 153.7 L253.1 151.7 L255.4 150 L259.7 149.8 L262.6 149.3 L265.4 150.5 L269 153.1 L273 152.7 L279.3 154.8 L284.8 154.1 L290 154.2 L289.6 151.2 L292.7 150.4 L298.2 152 L298.2 156.5 L300.5 152.7 L303.3 152.9 L305 148 L301.1 144.9 L297 142.8 L297.3 136.8 L301.5 132.8 L306.2 133.7 L309.8 136.2 L314.6 142.2 L311.4 144.8 L318.1 145.8 Z"/>
    <path d="M234.1 125.6 L232.3 128.5 L240.2 126.7 L245.2 129.7 L249.2 126.6 L252.4 128.6 L255.3 134.3 L257.1 131.9 L254.6 125.8 L257.7 124.9 L261.3 125.9 L265.2 128.4 L267.5 134 L268.6 137.9 L274.5 140.6 L281 143.1 L280.6 145.4 L274.7 145.8 L277 147.7 L275.8 149.5 L269.4 148.8 L263.3 147.4 L259.1 147.7 L252.4 149.4 L241.9 150.3 L237.1 150.6 L235.2 148.3 L230.3 146.9 L227.2 147.5 L222.8 143.4 L225.2 142.9 L230.6 142 L235.7 142.2 L240.3 141.3 L233.4 140.1 L225.8 140.5 L220.8 140.4 L218.9 138.4 L227.2 136.2 L221.7 136.3 L215.5 134.8 L218.4 130.5 L220.9 128.2 L230.4 124.5 L234.1 125.6 Z"/>
    <path d="M268.4 123.8 L265.3 127.8 L259.8 123.6 L261 122.7 L265.7 122.4 L268.4 123.8 Z"/>
    <path d="M368.6 125.8 L368.9 127.4 L365.1 127.3 L361.3 127.1 L357.4 127.9 L356.4 127.6 L352.4 124.3 L352.6 122.1 L354.3 121.7 L362.4 122.3 L368.6 125.8 Z"/>
    <path d="M332.2 125.4 L335 129.2 L338.3 124.3 L347.3 121.7 L353.4 128.1 L352.9 131.9 L359.9 130.3 L363.3 127.9 L371.2 130.9 L376.1 133.6 L376.5 136.1 L383.1 134.8 L386.8 138.3 L395.4 140.5 L398.5 142.6 L401.9 147.4 L395.4 149.7 L403.7 152.8 L409.4 153.9 L414.5 158.1 L420.1 158.4 L419 161.6 L412.7 166.6 L408.4 164.7 L402.8 160.6 L398.2 161.1 L397.7 163.6 L401.5 166.1 L406.3 168 L407.8 169.1 L410.1 173.1 L408.8 175.9 L404.4 174.9 L395.4 171.7 L400.5 175.1 L404.2 177.5 L404.7 178.8 L395.1 177.3 L387.5 175 L383.2 173.1 L384.4 172 L379.1 169.9 L373.9 167.9 L374 169.1 L363.7 169.7 L360.7 168.3 L363 165.2 L369.7 165.2 L377 164.6 L375.8 163.1 L377.1 160.9 L381.7 156.5 L380.7 154.4 L379.3 152.8 L373.9 150.5 L366.7 148.8 L369 147.6 L365.2 144.4 L362.1 144.1 L359.3 142.4 L357.4 143.9 L350.9 144.6 L338 143.4 L330.5 141.9 L324.7 141.1 L321.7 139.2 L325.4 136.7 L320.4 136.7 L319.3 130.9 L322 125.6 L325.7 123.1 L334.8 121.4 L332.2 125.4 Z"/>
    <path d="M283.2 121.1 L287.4 122.5 L293.8 121.7 L294.7 123.5 L291.4 126.4 L296.7 129 L296.1 134.2 L290.3 136.4 L286.9 135.9 L284.4 133.8 L275.6 129.3 L275.6 127.4 L282.9 128.2 L279 124.2 L283.2 121.1 Z"/>
    <path d="M1150.6 125.1 L1145.2 125.1 L1137.9 124.4 L1137.3 124.1 L1140.7 121.6 L1145.1 121 L1150.2 123.5 L1150.6 125.1 Z"/>
    <path d="M308.6 127.8 L304.8 132.2 L300.8 131.9 L298.5 126.7 L298.6 123.7 L300.5 121 L304 119.3 L311.4 119.5 L318.2 121 L312.9 126.6 L308.6 127.8 Z"/>
    <path d="M211.7 135.7 L202.3 138.4 L200.5 136 L192.3 133.1 L193.4 131.2 L196.2 126.3 L199.3 122.2 L195.8 118.2 L207.9 117.2 L212.9 118.6 L222 118.9 L225.5 120.8 L229.3 123.5 L224.8 125 L216.1 129.3 L211.7 133.3 L211.7 135.7 Z"/>
    <path d="M1175.9 112.9 L1171.8 115.6 L1166.1 115 L1159.5 112.3 L1160.4 110 L1167 111.1 L1175.9 112.9 Z"/>
    <path d="M307.2 113.6 L305.2 116.2 L300.1 115.7 L295.7 114 L297.6 110.8 L302.8 108.9 L305.9 111.4 L307.2 113.6 Z"/>
    <path d="M1155.9 109.5 L1153.1 114.7 L1140 114.5 L1134.1 116.1 L1127 111.7 L1128.9 106.7 L1133.6 105.4 L1143 105.7 L1155.9 109.5 Z"/>
    <path d="M289.8 100.9 L292.5 104.5 L292.6 108.2 L291 113.5 L285.1 114.2 L281.3 113.1 L281.4 109 L275.5 109.5 L275.3 103.9 L279.1 104.1 L284.5 101.5 L289.5 102 L289.8 100.9 Z"/>
    <path d="M255.2 104.9 L256.6 107.5 L259.8 106.3 L263.5 106.6 L264.2 110.1 L262 113.4 L250 114.5 L241 117.4 L235.6 117.6 L235.1 115.4 L242.5 112.3 L226.4 113.2 L221.5 111.9 L226.3 104.9 L229.7 102.8 L239.7 105.3 L246 109.6 L252.2 110.2 L247.1 103.2 L250.4 100.4 L254 101.3 L255.2 104.9 Z"/>
    <path d="M844.6 139.4 L842.5 139.9 L830.9 139.2 L829.9 136.8 L823.5 135.3 L823 132.2 L826.6 131 L826.5 127.7 L833.5 122.5 L830.3 121.7 L838.8 116 L837.8 112.9 L845.8 109.2 L857.5 104.5 L869.3 103.1 L875.4 100.2 L882.3 99.2 L884.8 102.3 L882.4 104.6 L869.8 108.3 L859 111.7 L847.9 118.1 L842.6 124.3 L837 130.1 L837.8 134.9 L844.6 139.4 Z"/>
    <path d="M303.3 98 L307.3 100.5 L314.3 100.5 L317.4 103 L316.6 105.8 L320.6 107.5 L322.9 109.2 L327.7 109.5 L332.9 110.1 L338.5 108.6 L345.8 107.9 L351.5 108.4 L355.4 111.1 L356.1 114 L353.9 115.8 L348.6 117.2 L344.1 116.4 L333.9 117.4 L326.6 117.6 L320.8 116.7 L311.4 114.6 L310.2 110.8 L309.7 107.2 L306.2 104 L298.8 103.1 L294.7 100.7 L296 97.5 L303.3 98 Z"/>
    <path d="M226.8 93.5 L226.4 99.7 L223.6 102.4 L220.3 102.8 L213.7 106 L208 107.1 L203.2 105.5 L203.2 105.5 L209.2 99.8 L216.5 94.6 L222 94.7 L226.8 93.5 Z"/>
    <path d="M1020.3 99 L1021.3 102.8 L1024.5 100.9 L1034.9 101 L1043 104.7 L1045.8 107.5 L1044.9 111.2 L1041 113.3 L1031.6 117 L1029 119 L1033.4 119.9 L1038.6 121.5 L1041.8 120.3 L1043.7 124.3 L1045.2 122.7 L1050.9 121.7 L1062.3 122.8 L1063.2 125.7 L1078 126.6 L1078.3 121.8 L1085.8 122.9 L1091.5 122.9 L1097.2 126.2 L1098.9 130 L1096.7 132.4 L1101.2 136.8 L1106.8 139.1 L1110.2 133.2 L1115.9 135.8 L1122 134.3 L1128.9 136 L1131.5 134.4 L1137.3 135.2 L1134.7 129.9 L1139.4 127.3 L1171.6 131.1 L1174.6 134.5 L1183.9 138.8 L1198.2 137.7 L1205.3 138.6 L1208.3 140.8 L1207.9 144.7 L1212.2 146.1 L1217 145.1 L1223.3 144.9 L1230 145.9 L1236.7 145.4 L1242.9 149.8 L1247.3 148.2 L1244.5 145 L1246.1 142.7 L1257.4 144.2 L1264.8 143.9 L1275 146.3 L1280 148.5 L1280 166.6 L1280 166.7 L1275.4 168.5 L1270.8 168.2 L1274 170.4 L1276.1 173.7 L1277.8 174.7 L1278.2 176.3 L1277.3 177.4 L1270.6 176.5 L1260.7 179.4 L1257.5 179.8 L1252.1 182.4 L1246.9 184.7 L1245.6 186.3 L1240.5 183.8 L1231.3 186.6 L1229.7 185.3 L1226.2 186.8 L1221.5 186.3 L1220.3 188.6 L1216.1 191.9 L1216.2 193.3 L1220.2 194 L1219.8 198.8 L1216.5 198.9 L1214.9 201.5 L1216.4 202.9 L1210.2 204.4 L1209 207.9 L1203.7 208.6 L1202.6 211.6 L1197.5 214.2 L1196.2 212.3 L1194.6 208 L1192.7 201.2 L1194.4 196.8 L1197.4 194.9 L1197.5 193.3 L1203.1 192.6 L1209.4 188.3 L1215.5 184.6 L1221.9 181.7 L1224.8 176.4 L1220.5 176.7 L1218.3 179.9 L1209.3 183.9 L1206.4 179.4 L1197.2 180.6 L1188.3 186.7 L1191.3 188.9 L1183.3 189.8 L1177.8 190.1 L1178.1 187.6 L1172.6 187.1 L1168.2 188.8 L1157.3 188.2 L1145.6 189.2 L1134.1 195.8 L1120.4 203.3 L1126.1 203.7 L1127.8 205.6 L1131.3 206.2 L1133.5 204.7 L1137.4 204.9 L1142.6 208.2 L1142.7 210.7 L1139.9 213.6 L1139.6 216.9 L1138 221.3 L1132.6 225.1 L1131.4 226.9 L1126.6 229.9 L1121.8 232.7 L1119.5 234.2 L1114.8 235.6 L1112.6 235.7 L1110.3 234.5 L1105.5 236.3 L1105 237.1 L1103.6 236.9 L1102.1 237.7 L1101 238.5 L1101.2 240.2 L1099.3 240.7 L1098.7 241.2 L1097.4 241.8 L1095 242.2 L1093.5 242.9 L1093.3 243.9 L1092.9 244.1 L1094.3 244.5 L1096.4 245.5 L1099.4 248.1 L1100.3 249.6 L1100.3 252.1 L1099 253.3 L1095.8 253.7 L1092.9 254.6 L1089.7 254.8 L1089.3 253.6 L1090 252 L1088.4 249.7 L1091.1 249.3 L1088.6 247.4 L1086.9 247 L1086.5 247.4 L1085.4 247.6 L1085.3 247.2 L1084.4 247 L1083.4 246.6 L1084.4 245.6 L1085.2 245.4 L1084.9 244.9 L1085.8 243.7 L1085.6 243.3 L1083.5 243.1 L1081.8 242.5 L1076.9 243.1 L1074.2 244.2 L1070.4 244.8 L1072.3 243.8 L1071.6 242.9 L1074.4 241.3 L1072.5 240.1 L1069.4 240.9 L1065.4 242.5 L1063.2 244 L1059.7 244.1 L1057.9 245.2 L1059.8 246.7 L1062.7 247.1 L1062.8 248.1 L1065.6 248.8 L1069.6 247.2 L1072.8 248 L1075.1 248.1 L1075.6 249.3 L1070.6 249.9 L1068.9 251.1 L1065.5 252.2 L1063.6 253.7 L1067.5 254.9 L1068.9 257 L1071 258.9 L1073.5 260.5 L1073.4 262.1 L1071.2 262.7 L1072 263.8 L1074.1 264.4 L1073.6 266.1 L1072.7 267.7 L1070.7 267.8 L1068.1 270 L1065.2 272.6 L1061.9 275 L1057 276.8 L1052.1 278.4 L1048 278.6 L1045.9 279.5 L1044.6 278.8 L1042.6 279.8 L1037.7 280.8 L1033.9 281 L1032.7 283.1 L1030.7 283.2 L1029.8 281.8 L1030.6 281 L1025.9 280.4 L1024.2 280.7 L1019.4 282.4 L1016.5 284.2 L1015.7 285.5 L1018.4 287.5 L1021.7 289.9 L1025 291 L1027.1 292.5 L1028.7 295.9 L1028.3 299.1 L1025.3 300.3 L1021.2 301.5 L1018.3 303 L1013.9 304.7 L1012.6 303.5 L1013.6 302.3 L1011 301.3 L1008 301 L1006.5 300 L1004.7 298.2 L1001.6 297.3 L998.5 297.4 L999 295.9 L995.9 295.9 L995.6 298 L993.7 300.6 L992.5 302.2 L992.8 303.5 L995.1 303.6 L996.6 305.2 L997.2 306.8 L999.2 307.8 L1001.3 308 L1003.2 308.9 L1004 309.1 L1006.1 310.2 L1007.6 311.4 L1007.8 312.6 L1007.4 313.4 L1007.7 314 L1008 315 L1009.3 315.5 L1010.7 317.1 L1010.6 317.7 L1008.1 317.8 L1004.7 316.5 L1000.5 315.1 L1000.1 314.2 L998 313 L997.5 311.5 L996.3 310.5 L996.6 309.2 L995.9 308.5 L994.5 307.8 L993.8 306.9 L992 305.9 L990.2 305 L989.7 306.1 L989 305.1 L989.4 304 L990.4 302.3 L990.1 300.9 L991.2 299.5 L990 298.4 L990.3 296.5 L988.8 295.5 L987.7 293.3 L987 291 L985.5 289.5 L983.1 290.4 L979.1 291.7 L977.1 291.5 L974.9 291.1 L976.1 288.8 L975.4 287.1 L972.6 284.9 L973 284.2 L970.9 284 L968.4 282.4 L967.4 281.4 L967.2 280.5 L966.5 279.5 L965 278.4 L961.8 278.3 L962.1 279.1 L961 280.2 L959.5 279.8 L958.9 280.2 L957.9 280 L956.6 279.8 L956 280.5 L953.6 280.5 L949.2 280.9 L949.5 282.3 L947.6 283.4 L942.4 284.7 L938.5 286.9 L935.8 288.1 L932.2 289.3 L932.2 290.1 L930.5 290.6 L927.3 291.3 L925.6 291.4 L924.5 292.8 L925.3 295.2 L925.5 296.7 L924 298.4 L923.9 301.5 L922.1 301.6 L920.5 303 L921.6 303.5 L918.3 304.1 L917.1 305.3 L915.7 305.8 L912.3 304.1 L910.7 301.6 L909.3 299.8 L908.1 298.9 L906.2 297.2 L905.3 294.9 L904.7 293.7 L901.5 291.2 L900 287.6 L898.9 285.2 L898.9 282.9 L898.2 281.1 L893.1 282.3 L890.6 282 L885.9 279.7 L887.6 279 L886.6 278.3 L882.4 276.6 L879.8 276.1 L878.7 274.7 L876 273.2 L869.4 273.6 L863.7 273.6 L858.7 273.9 L852 273.3 L848.1 272.9 L844.1 272.6 L842.6 270.2 L840.9 269.8 L838.1 270.2 L834.5 271.2 L830.2 270.5 L826.6 269 L823.2 268.4 L820.8 266.5 L818.2 263.7 L816.3 264.1 L814 263.4 L812.7 264.2 L810.6 264.1 L811.3 265 L811 265.5 L812.1 267 L813.5 268.7 L815.3 269.2 L815.9 269.9 L818.3 270.7 L818.5 271.6 L818.2 272.2 L818.6 272.9 L819.7 273.4 L820.1 274.1 L820.7 274.6 L820.4 273.1 L821.4 272.1 L822.4 271.9 L823.4 272.5 L823.5 273.7 L822.7 274.8 L823.4 275.5 L824 275.5 L824.2 276 L826.9 275.7 L829.9 275.7 L832 275.8 L834.5 274.5 L837.1 273.2 L839.4 272 L840.4 271.3 L840.8 271.5 L840.5 272.3 L840 272.7 L840.5 274.2 L842.1 275.6 L844.1 276.3 L846.7 276.5 L848.8 276.9 L850.4 278 L851.4 278.6 L852.7 278.9 L852.6 279.3 L851.4 280.4 L850.8 281 L849.3 281.6 L848 282.9 L846.3 282.8 L845.6 283.2 L845 284.2 L845.5 285.5 L845.1 285.7 L843.5 285.7 L841.3 286.4 L840.9 287.3 L840.1 287.7 L837.9 287.7 L836.5 288.1 L836.5 288.9 L834.8 289.4 L832.9 289.2 L830.5 289.9 L828.8 290 L826.3 290.5 L825.6 291.3 L825.5 291.9 L821.9 292.7 L816.3 293.6 L813.1 294.9 L811.5 295 L810.4 294.8 L808.4 295.6 L806.1 296 L803.1 296.1 L802.2 296.2 L801.4 296.6 L800.5 296.8 L800 297.2 L798.2 297.2 L797.1 297.4 L794.6 297.4 L793.7 296.3 L793.8 295.3 L793.2 294.7 L792.5 293.4 L791.5 292.6 L792.2 292.5 L791.8 291.7 L792.3 291.3 L792.1 290.5 L791.6 289.7 L790.6 289.2 L790.3 288.4 L788.5 287.8 L786.6 286.2 L785.6 284.7 L783.1 283.4 L781.5 283.1 L779.2 281.2 L778.8 279.9 L778.9 278.8 L776.9 276.6 L775.2 275.9 L773.3 275.5 L772.1 274.4 L772.3 273.9 L771.3 272.9 L770.3 272.4 L768.9 271 L766.7 269.4 L764.9 268 L763.1 268 L763.7 266.9 L763.8 266.2 L764.3 265.4 L764.2 265.1 L763.2 265.9 L762.4 267.4 L761.4 268.5 L760.6 268.8 L759.4 268.2 L757.8 267.3 L755.3 264.4 L754.9 264.5 L756.4 266.7 L758.6 268.7 L761.3 271.8 L762.6 272.9 L763.7 274 L766.9 276.2 L766.2 276.5 L766.3 277.8 L770.5 279.5 L771.1 279.9 L772.2 281.8 L771.4 282.1 L772 284.1 L773.3 286.3 L774.6 286.8 L776.6 287.5 L778.6 289.6 L779.6 291.3 L781.6 292.2 L786.4 294 L788.4 295 L790.3 296.1 L791.4 296.7 L793.2 297.2 L794 297.8 L793.9 298.6 L791.9 299 L793.4 299.5 L794.6 299.8 L795.3 300.6 L796.9 301.3 L798.6 301.3 L802 300.9 L805.9 300.7 L809 300.1 L810.7 300 L812 299.6 L814 299.6 L815.2 299.5 L816.8 299.3 L818.7 299.1 L820.4 298.5 L821.7 298.5 L821.8 299 L821.5 300 L821.5 301 L820.7 301.6 L819.7 303.6 L818 305.6 L815.8 307.9 L812.8 310.5 L809.7 312.5 L805.6 314.9 L802 316.4 L796.7 318.1 L793.4 319.5 L789.5 321.6 L788.7 322.6 L787.9 323 L785.4 323.7 L784.5 324.4 L783.2 324.6 L782.7 325.8 L781.5 326.5 L780.8 327.7 L779.4 328.3 L777.7 330.5 L778 331.5 L780.2 332.2 L780.3 332.7 L779.4 333.7 L779.6 334.3 L779.3 335.1 L780.6 336.3 L782 338 L783.3 338.4 L783.9 339.3 L783.8 341.1 L784.2 342.7 L784.4 345.5 L785 346.4 L783.9 347.7 L782.5 349 L780.3 350.2 L777 350.9 L773 351.8 L769 353.8 L767.6 354.1 L765.2 355.5 L763.7 355.9 L763.4 357.2 L765.1 358.7 L765.8 359.8 L765.8 360.4 L766.4 360.3 L766.3 362.2 L765.8 363.1 L766.6 363.4 L766.1 364.2 L764.6 364.9 L761.7 365.6 L757.4 366.6 L755.8 367.4 L756.1 368.2 L757 368.3 L756.7 369.4 L755.8 370.8 L755.4 372.5 L754.5 373.4 L752.1 374.4 L751.4 374.7 L749.9 375.8 L748.9 376.8 L746.9 378.3 L742.8 380.5 L740.3 381.7 L737.7 382.7 L733.9 383.5 L732.1 383.6 L731.7 384.2 L729.5 383.9 L727.7 384.3 L723.9 383.9 L721.7 384.2 L720.3 384 L716.6 384.9 L713.6 385.2 L711.4 386.1 L709.7 386.1 L708.2 385.3 L707 385.3 L705.5 384.3 L705.3 384.6 L704.9 384.1 L704.9 382.8 L703.7 381.4 L704.9 381 L704.8 379.4 L702.5 377.4 L700.7 375.7 L700.7 375.7 L698.1 373.1 L695.5 371.5 L694.1 370.1 L693.3 368.1 L692.4 366.7 L691.2 363.7 L691.1 361.4 L690.7 360.3 L689.3 359.5 L687.5 358 L685.6 355.7 L684.8 354.5 L681.9 352.7 L681.7 351.2 L681.4 350.1 L681.9 348.4 L683.1 346.8 L683.3 346 L684.4 344.3 L685.3 343.6 L687.3 342.4 L688.5 341.6 L688.8 340.2 L688.7 339.2 L687.6 338.5 L686.7 337.4 L685.8 336.4 L686 336 L687.1 335.3 L686 333.5 L685.3 332.3 L683.5 331.2 L683.8 330.9 L683.3 330.3 L682.4 329 L679.4 327.1 L675.8 325.3 L673.4 323.8 L671.3 322 L671.4 321.4 L672.2 320.8 L673 319.5 L673.8 318.2 L673.1 317.9 L674.3 315.9 L674.8 314.5 L673.4 313.4 L671.8 313.1 L671.1 312.3 L670.2 312 L670.2 311.5 L666.5 312.1 L665.2 312.1 L663.8 312.5 L661 312.4 L659.1 311.3 L657.9 310 L655.4 308.8 L652.7 308.9 L649.6 308.9 L646.6 309.1 L643.8 309.4 L638.2 310.5 L636.2 311.1 L633 311.6 L629.8 311.1 L628.2 311.1 L625.7 310.8 L623.5 310.8 L619.3 311.1 L616.8 311.6 L613.3 312.3 L612.6 312.2 L611.6 312.2 L608 311.4 L604.8 310 L601.7 309.1 L599.3 307.9 L598.4 307.8 L595.8 307.1 L594 306.1 L593.3 305.4 L592.9 304.1 L591.3 303 L590 302.3 L589 302.1 L588.2 301.7 L587.8 300.9 L587.2 300.5 L586.2 300.2 L584.3 299.5 L582.8 299.4 L582 298.9 L582 298.6 L580.9 298.2 L580.7 297.8 L580.1 296.4 L580.6 295.6 L579.1 294.2 L577.3 293.5 L578.9 293.2 L580.6 291.9 L581.5 290.9 L581.2 289.9 L582.1 289 L582.6 287.3 L582.2 285.4 L581.8 284.5 L582.1 283.5 L581.2 282.6 L579.3 281.8 L579.5 281 L579.7 280.1 L581 279.6 L582.2 278.6 L582 277.9 L583.2 276.6 L585.2 275.3 L586.3 275 L587.3 273.9 L587.4 272.8 L588.7 271.6 L591 270.9 L593.3 268.8 L595.1 268 L598.4 267.8 L601.2 266.4 L603 265.9 L606 264.2 L605.1 261.6 L606.5 259.8 L606.9 258.7 L609.2 257.3 L612.8 256.3 L615.4 255.4 L617.8 253.2 L618.9 251.8 L621.5 251.9 L623.7 252.8 L627.1 252.6 L630.7 253.1 L632.3 253.1 L635.7 251.9 L639.5 251.6 L641.8 250.7 L645.2 250 L651.2 249.6 L657.1 249.4 L658.9 249.7 L662.3 248.9 L666.1 248.8 L667.5 249.4 L669.9 249.2 L673.8 248.3 L676.3 248.6 L676.2 249.7 L679.2 248.9 L679.5 249.3 L677.7 250.4 L677.7 251.4 L678.9 252 L678.4 253.9 L676.1 254.9 L676.8 256.1 L678.6 256.2 L679.5 257.2 L680.8 257.5 L685 258.2 L686.5 258 L689.5 258.4 L694.2 259.3 L695.9 261.2 L699.1 261.6 L704.1 262.5 L707.9 263.5 L709.6 263 L711.3 262 L710.5 260.4 L711.6 259.4 L714.1 258.4 L716.6 258.1 L721.4 258.6 L722.6 259.5 L723.9 259.5 L725.1 259.9 L728.6 260.1 L729.5 260.8 L734.2 260.8 L737.6 261.3 L741.2 261.9 L742.8 262.3 L745.5 261.6 L747 261 L750.1 260.8 L752.7 261.1 L753.6 262.1 L754.5 261.4 L757.3 261.9 L760.1 262.1 L761.8 261.5 L762.9 260.8 L762.6 260.7 L763.6 259.7 L764.3 258.2 L764.8 257.6 L764.9 257.6 L766.2 255.9 L767.9 254.3 L768 254.3 L767.7 252.6 L768.5 251.7 L767.2 250.7 L768.6 249.9 L766.4 250.1 L763.4 249.6 L761 250.8 L755.6 251.1 L752.7 249.9 L748.9 249.8 L748.1 250.7 L745.6 251 L742.2 249.8 L738.3 249.9 L736.2 247.6 L733.6 246.4 L735.3 244.6 L733.1 243.5 L737 241.3 L742.5 241.2 L744 239.4 L750.7 239.7 L755 238.2 L759.2 237.5 L765 237.5 L771.2 239.2 L776.3 240.1 L780.5 239.7 L783.6 239.9 L787.7 238.7 L788.3 237.7 L787.4 236 L785.3 235.1 L783.4 234.9 L782.1 234.1 L777.5 232 L773.5 231.1 L770.4 229.6 L773 229.2 L775.9 227.1 L774 226 L779.2 225 L779.1 224.4 L775.9 224.8 L773.1 225 L770.7 225.9 L767.4 226 L764.3 227 L764.5 228.6 L766.3 229.2 L769.9 229 L769.2 229.9 L765.3 230.4 L760.5 231.8 L758.5 231.3 L759.3 230.1 L755.4 229.4 L756 228.9 L759.4 228.1 L758.4 227.5 L752.9 226.8 L752.6 225.9 L749.3 226.2 L748 227.6 L745.3 229.5 L745.3 230.1 L743.6 230.7 L742.5 230.4 L741.5 233.4 L739.7 234.5 L738.4 236.2 L739.5 237.6 L740 238.5 L743.1 239.2 L742.4 239.8 L738.2 240 L736.7 240.7 L733.7 241.9 L732.6 240.9 L732.6 240.4 L730.5 240.3 L728.6 240.1 L724.3 240.7 L726.8 242 L725 242.4 L723 242.4 L721.1 241.2 L720.4 241.7 L721.2 243.1 L723 244.2 L721.7 244.7 L723.7 245.7 L725.4 246.4 L725.5 247.6 L722.2 247 L723.2 248.2 L721 248.4 L722.3 250.4 L720 250.4 L717 249.5 L715.7 247.7 L715.1 246.2 L713.7 245.1 L711.9 243.8 L711.6 243.2 L711 243 L711 242.5 L709 241.7 L708.7 240.6 L709 239 L709.5 238.2 L708.9 237.9 L708.1 237.7 L707.1 236.9 L705.6 236.4 L702.3 235.5 L700.2 234.7 L696.9 233.9 L694 232.1 L694.7 231.9 L693 230.9 L693 230 L690.7 229.6 L689.6 230.7 L688.6 229.9 L688.6 229 L688.8 229 L689.6 228.7 L686.7 228.4 L683.8 229.3 L684 230.5 L683.6 231.2 L684.8 232.5 L688.1 233.7 L689.9 235.7 L693.8 237.7 L696.6 237.7 L697.5 238.2 L696.5 238.7 L699.7 239.5 L702.3 240.2 L705.3 241.5 L705.7 241.9 L705 242.7 L703.1 241.6 L700 241.3 L698.5 242.8 L701.1 243.6 L700.6 244.8 L699.1 245 L697.2 246.9 L695.8 247.1 L695.8 246.4 L696.5 245.2 L697.3 244.7 L695.9 243.3 L694.8 242.2 L693.3 241.9 L692.3 240.9 L690 240.5 L688.5 239.5 L685.8 239.4 L683 238.3 L679.8 236.7 L677.4 235.3 L676.3 232.9 L674.5 232.6 L671.6 231.8 L670 232.1 L667.9 233.3 L666.4 233.5 L663.2 234.9 L656.2 234.2 L651 235 L650.6 236.4 L650.8 237.8 L647.4 239.4 L642.9 239.9 L642.6 240.7 L640.4 242 L639 243.9 L640.4 245.2 L638.3 246.2 L637.6 247.7 L634.9 248.1 L632.4 249.8 L627.9 249.9 L624.5 249.8 L622.2 250.6 L620.9 251.4 L619.1 251.3 L617.8 250.5 L616.8 249.2 L613.5 248.9 L612.1 249.5 L610.2 249.2 L608.4 249.4 L608.9 247.7 L608.6 246.3 L607 246.1 L606.1 245.2 L606.4 243.7 L607.8 242.9 L608.1 241.9 L608.8 240.5 L608.7 239.5 L608 238.7 L607.9 237.9 L608.1 236.2 L606.6 235.1 L611.6 233.3 L616 233.8 L620.8 233.8 L624.5 234.2 L627.5 234.1 L633.2 234.1 L635.1 232.7 L635.8 227.6 L632.1 224.9 L629.5 223.6 L624 222.6 L623.7 220.6 L628.3 220.1 L634.3 220.8 L633.1 217.7 L636.5 218.8 L644.8 216.7 L645.8 214.4 L648.9 213.8 L651.8 213.3 L653.6 212.5 L656.7 208.2 L661.6 207 L664.6 207 L665.2 206.4 L668.2 206.3 L668.9 206.9 L671.3 205.4 L670.5 204.3 L670.3 202.5 L668.9 200.8 L668.8 197.6 L669.4 196.7 L670.4 195.7 L673.5 195.5 L674.8 194.6 L677.6 193.7 L677.5 195.4 L676.4 196.4 L676.9 197.3 L678.8 197.8 L677.9 199 L676.9 198.7 L674.3 201 L675.3 202.5 L675.3 203.7 L678.9 204.4 L678.9 205.5 L682.5 204.9 L684.5 204.1 L688.5 205.3 L690.2 206.2 L692.6 205.3 L698.2 203.9 L702.7 202.9 L706.2 203.4 L706.5 204.2 L709.9 204.2 L710.7 202.8 L715.6 201.8 L714.9 199.2 L715 196.8 L716.7 194.7 L720.1 193.6 L722.9 196 L725.8 196 L726.4 193.5 L726.9 191.5 L725.6 191.9 L723.3 190.7 L723 188.7 L727.5 187.7 L732 187.2 L735.8 187.8 L739.5 187.7 L743.5 185.8 L739.8 184.1 L733.4 184.3 L727.1 185.7 L721.3 186.4 L719.3 184.5 L715.8 183.3 L716.6 179.6 L714.9 176.2 L716.6 173.9 L719.8 171.4 L727.9 167 L730.3 166.1 L729.9 164.3 L725 162.2 L718.9 163.5 L715.4 166.4 L716 169 L710.3 172.3 L703.5 175.6 L700.9 181 L703.4 183.6 L706.8 185.6 L703.5 189.5 L699.8 190.3 L698.5 195.9 L696.5 199 L692.1 198.7 L690.1 201.2 L686 201.3 L684.9 198.3 L681.9 194.6 L679.2 189.9 L676.8 187.7 L669.8 191.7 L665.1 192.5 L660.1 190.8 L658.9 187 L657.7 178.6 L661 176.2 L670.4 172.9 L677.4 168.7 L683.9 162.8 L692.5 154.1 L698.4 150.5 L708.2 144.2 L716 141.9 L721.9 142.2 L727.3 137.7 L733.8 138 L740.1 136.9 L751.3 140.8 L746.7 142.3 L750.6 145.5 L754.2 143.7 L760.1 146.8 L769.8 148 L783.3 153.5 L786 155.7 L786.2 158.8 L782.3 161.1 L776.5 162.3 L760.6 158.9 L758 159.5 L763.8 162.7 L764.2 169 L768.8 170.2 L771.6 171.3 L772.1 169.3 L769.8 167.5 L772.2 165.9 L780.8 168.6 L783.8 167.5 L781.4 164.4 L789.7 160.2 L792.9 160.4 L796.3 162 L798.3 158.9 L795.4 156.2 L797.1 153.4 L794.5 150.4 L804.4 152 L806.5 154.6 L802 155.2 L802 157.8 L804.8 159.3 L810.3 158.3 L811.2 155.4 L818.6 153.2 L831 149 L833.7 149.3 L830.2 152.2 L834.6 152.7 L837.1 151.1 L843.8 150.9 L849.1 148.9 L853.1 151.8 L857.2 148.6 L853.4 145.7 L855.3 144 L865.8 145.6 L870.7 147.1 L883.6 152.7 L886 150.2 L882.4 147.6 L882.3 146.5 L878 146 L879.1 143.6 L877.2 139.5 L877.1 137.7 L883.7 132.7 L886 127.3 L888.7 126.1 L898.1 127.7 L898.8 131 L895.5 135.6 L897.7 137.4 L898.8 141.2 L898 148.2 L901.9 151.2 L900.4 154.4 L893.4 160.9 L897.5 161.5 L898.9 159.9 L902.8 158.8 L903.8 156.5 L906.9 154.3 L904.8 151.6 L906.4 148.4 L902.6 148 L901.7 145.2 L904.5 139.9 L899.9 135.4 L906.3 131.6 L905.5 127.4 L907.2 127.3 L909.1 130.6 L907.7 136.1 L911.5 137.1 L909.9 133 L915.8 130.8 L923.2 130.4 L929.8 133.7 L926.6 128.9 L926.3 122.4 L932.4 121.1 L941 121.4 L948.7 120.5 L945.8 117.1 L949.9 112.7 L954 112.5 L960.9 109 L970.3 108 L971.5 106 L980.8 105.3 L983.7 107 L991.7 103 L998.3 103.2 L999.2 99.8 L1002.6 96.5 L1011 93.1 L1017.1 95.8 L1012.3 97.7 L1020.3 99 Z M814.6 239.3 L816.4 241 L818.1 241.1 L819.2 241.7 L816.2 241.9 L815.6 243.7 L815 244.5 L813.7 245 L813.8 246.1 L814.9 247.8 L818.3 248.3 L820.8 249.4 L825.8 249.8 L831.4 249.2 L831.7 248.7 L831.1 247.1 L831.6 244.7 L828.8 243.9 L829.7 242.3 L827.4 242.2 L828.1 240.2 L831.5 240.8 L834.6 240.1 L832 238.6 L831 237.3 L828.1 237.9 L827.8 239.6 L826.7 238.1 L826.5 237.5 L827.3 236.5 L826.7 235.7 L822.6 234.8 L820.9 232.6 L819 232 L818.9 231.2 L822.3 231.4 L822.5 229.6 L825.5 229.2 L828.6 229.6 L829.2 227.1 L828.6 225.5 L825 225.6 L822 225 L817.9 226.1 L814.6 226.7 L813 228.2 L809.5 228.6 L806 231.2 L809.2 233.6 L808.9 235.2 L812.7 238 L814.6 239.3 Z"/>
    <path d="M306.3 94.6 L304.7 94.8 L298.1 94.3 L297.1 91.9 L304.3 92.1 L306.8 93.6 L306.3 94.6 Z"/>
    <path d="M248.2 93.1 L241.6 95.5 L236.3 92.8 L239.2 90.1 L244.4 89.2 L249.4 90.6 L248.2 93.1 Z"/>
    <path d="M727.9 91.8 L720 95.2 L713.7 93.3 L716.1 91.1 L714 88.3 L721.4 86.6 L722.8 89.8 L727.9 91.8 Z"/>
    <path d="M250.1 85.3 L245.8 87 L239.9 87 L239.9 85.7 L243.6 83 L245.5 83.4 L250.1 85.3 Z"/>
    <path d="M299.3 90 L294 91.8 L291.1 89.8 L289.6 86.5 L289.3 82.8 L293.9 83.2 L296 83.8 L300.2 86.9 L299.3 90 Z"/>
    <path d="M284.2 87.7 L285.6 91.3 L279.8 90.4 L274 87.6 L266 87.2 L269.5 84.6 L265.2 82.4 L264.9 78.8 L271.9 80.1 L281.5 83.5 L284.2 87.7 Z"/>
    <path d="M1013.6 87.9 L993.6 91.2 L1000.1 79.4 L1003 78.3 L1005.6 79 L1014.7 84.2 L1013.6 87.9 Z"/>
    <path d="M704.9 74.9 L716.6 82 L707.7 85.6 L705.7 92 L702.6 93.6 L700.9 100.2 L696.6 100.5 L688.9 95.7 L692.2 92.8 L686.8 90.3 L679.9 82.8 L677.1 75.3 L686.8 71.7 L688.8 75.3 L693.8 75.1 L695.2 71.7 L700.4 71.3 L704.9 74.9 Z"/>
    <path d="M730.5 67.6 L737.4 71.3 L732.2 76.7 L721.9 77.8 L711.4 76.2 L710.7 73.4 L705.6 73.3 L701.8 68.5 L712.7 65.5 L717.9 68.1 L721.5 64.9 L730.5 67.6 Z"/>
    <path d="M821.8 66.1 L817 67.5 L813.8 68.3 L813.4 70 L809.2 71.7 L805.3 69.3 L807.4 66 L799.5 65.6 L806.4 63.6 L811.8 63.5 L812.5 66.4 L814.6 63.8 L817.9 62 L823.2 64.4 L821.8 66.1 Z"/>
    <path d="M995.3 82.7 L987.6 83.9 L977.7 81.2 L971.8 77.6 L969.1 70.4 L964.2 68.3 L973.4 60.8 L981.1 58.2 L988 63.9 L996.2 74.1 L995.3 82.7 Z"/>
    <path d="M330.6 75.3 L334.9 78.4 L330 81.2 L323.4 88 L317.1 88.7 L309.8 87.6 L306 83.9 L306 80.5 L308.8 78 L302.3 78.1 L298.4 74.8 L296.1 70.2 L298.6 65.5 L301.1 62.1 L304.7 61.3 L303.2 58.7 L311.4 58.1 L316 64.2 L322 66.5 L327.8 68.5 L330.6 75.3 Z"/>
    <path d="M396.4 33.8 L405.9 35 L413.6 36.8 L420.1 40.7 L419.9 44.3 L411.3 49.9 L402.7 52.5 L399.4 55.2 L407.2 55.1 L398.8 62.2 L393 65.3 L386.9 73.9 L379.6 75.5 L377.3 77.5 L366.6 78.6 L371.5 79.8 L369 81.4 L371.9 85.9 L368.6 89 L363.1 91.4 L361.4 94.7 L356.4 97.1 L356.9 98.9 L363 98.6 L363.1 100.5 L353.6 105.1 L344.3 103 L333.8 104.1 L328.5 103.2 L321.8 102.8 L321.4 99.1 L327.9 97.3 L326.2 91.4 L328.4 90.8 L337.9 94.4 L333 89 L327.2 87.3 L330.1 83.8 L336.4 81.6 L337.4 78.3 L332.4 74.5 L330.9 69.2 L340.6 69.7 L343.4 70.8 L349 67 L341 65.7 L328.5 66.4 L322.3 62.7 L319.3 58.1 L315.1 54.6 L314.4 50.4 L319.6 47.9 L323.8 47.5 L330.8 45.4 L336 40.3 L340.4 41.1 L344.2 44.9 L347 37.4 L351.6 35.1 L358 33.5 L368.9 32.8 L370.8 34.4 L381 31.9 L388.7 32.9 L396.4 33.8 Z"/>
    <path d="M543.6 27.5 L565.9 39.3 L559.3 44.6 L545.7 45.1 L526.6 46.4 L528.4 48.7 L541 47.3 L551.7 51.7 L558.6 47.8 L561.5 52.4 L557.6 59.3 L566.7 54.9 L583.9 50.1 L594.6 52.6 L596.6 57.7 L582.1 65.7 L580.1 68.2 L568.7 70 L577 70.5 L572.8 77.8 L569.9 83.9 L570 93.6 L574.3 98.9 L568.8 99.2 L562.9 101.6 L569.5 105.6 L570.3 111.8 L566.5 112.4 L571.1 118.2 L563.2 118.7 L567.3 121.3 L566.2 123.5 L561.2 124.5 L556.2 124.5 L560.7 128.6 L560.7 131.2 L553.7 128.8 L551.8 130.4 L556.6 131.8 L561.3 135.3 L562.7 139.7 L556.3 140.8 L553.6 138.7 L549.2 135.5 L550.4 139.2 L546.3 142 L555.6 142.3 L560.5 142.6 L551 147 L541.3 150.9 L530.9 152.6 L527 152.6 L523.3 154.4 L518.4 159.3 L510.7 162.4 L508.3 162.5 L503.6 163.6 L498.4 164.6 L495.4 167.2 L495.4 170.1 L493.6 172.8 L487.8 175.9 L489.2 178.9 L487.6 182 L485.8 185.5 L480.8 185.7 L475.5 182.8 L468.4 182.8 L464.9 180.7 L462.6 177.1 L456.4 172.2 L454.6 169.5 L454.1 165.8 L449.2 161.8 L450.5 158.5 L448.1 156.9 L451.6 151.5 L457 149.6 L458.4 147.6 L459.1 143.6 L455.1 145.4 L453.1 146.2 L449.9 146.9 L445.6 145.2 L445.3 141.7 L446.7 138.9 L450 138.8 L457.3 140.2 L451.2 136.8 L448 134.9 L444.4 135.7 L441.5 134.3 L445.4 128.9 L443.3 126.6 L440.5 122.4 L436.2 115.4 L431.7 112.8 L431.7 109.9 L422.2 105.6 L414.6 105.1 L405.1 105.4 L396.4 105.9 L392.3 103.5 L386.1 98.7 L395.5 96.2 L402.6 95.7 L387.4 93.6 L379.4 90.2 L379.9 86.8 L393.3 82.4 L406.4 77.9 L407.7 74.3 L398.1 70.6 L401.2 66.4 L413.5 58.6 L418.7 57.3 L417.2 51.9 L425.7 48.6 L436.6 46.6 L447.5 46.4 L451.4 50.4 L460.8 43.3 L469.3 48.2 L474.3 49.2 L481.7 53.3 L473.2 46.4 L473.7 40.7 L485.7 32 L498.1 32.7 L502.7 27 L515.2 25.5 L543.6 27.5 Z"/>
  </g>
</svg>
